<svg xmlns="http://www.w3.org/2000/svg" width="38" height="40" fill="none"><path fill="#0592B8" d="M28.122 9.283H10.138c-.95 0-1.722.772-1.722 1.723v17.983c0 .951.771 1.723 1.722 1.723h17.984c.95 0 1.722-.772 1.722-1.723V11.006c0-.951-.771-1.723-1.722-1.723Zm0 19.715c-11.995-.003-17.992-.006-17.992-.009.003-11.994.005-17.991.008-17.991 11.995.002 17.992.005 17.992.008-.003 11.994-.005 17.992-.008 17.992Zm-16.53-11.682h3.18v10.227h-3.18V17.316Zm1.592-1.398a1.845 1.845 0 0 0 1.303-3.146 1.843 1.843 0 1 0-1.303 3.146Zm6.758 6.565c0-1.334.254-2.625 1.907-2.625 1.628 0 1.652 1.524 1.652 2.711v4.974h3.177v-5.609c0-2.753-.594-4.872-3.811-4.872-1.546 0-2.582.849-3.008 1.652h-.043v-1.398h-3.051v10.227h3.177v-5.06Z"/></svg>