<svg xmlns="http://www.w3.org/2000/svg" width="48" height="48" fill="none"><path stroke="#fff" stroke-linecap="round" stroke-linejoin="round" d="M34.688 35.438C37.395 37.642 39 39.757 39 43.5m-25.688-8.063C10.604 37.644 9 39.757 9 43.5m27-24c2.708-2.205 3-5.257 3-9m-27 8.813c-2.708-2.205-3-5.069-3-8.813m34.5 16.512H36m-24 0H4.5M24 18v24"/><path stroke="#fff" stroke-linecap="round" stroke-linejoin="round" d="M24 42c-6.6 0-12-5.4-12-12v-9.007c0-6.1 5.4-9 12-9s12 2.4 12 9V30c0 6.6-5.4 12-12 12Z"/><path stroke="#fff" stroke-linecap="round" stroke-linejoin="round" d="M16.822 13.455a4.6 4.6 0 0 1-.322-1.475 7.5 7.5 0 0 1 7.48-7.48h.04a7.5 7.5 0 0 1 7.48 7.48c-.018.46-.117.915-.293 1.34"/></svg>