<svg xmlns="http://www.w3.org/2000/svg" width="48" height="48" fill="none"><path stroke="#fff" stroke-linecap="round" stroke-linejoin="round" d="M37.688 15.75c-.275 3.813-3.104 6.75-6.188 6.75-3.084 0-5.918-2.936-6.188-6.75C25.032 11.783 27.785 9 31.5 9s6.469 2.856 6.188 6.75Z"/><path stroke="#fff" stroke-miterlimit="10" d="M31.5 28.5c-6.11 0-11.985 3.035-13.457 8.945-.195.782.295 1.555 1.099 1.555h24.717c.803 0 1.291-.773 1.099-1.555C43.486 31.44 37.61 28.5 31.5 28.5Z"/><path stroke="#fff" stroke-linecap="round" stroke-linejoin="round" d="M18.75 17.432c-.22 3.045-2.505 5.443-4.969 5.443-2.463 0-4.753-2.397-4.968-5.443-.225-3.168 2-5.432 4.968-5.432s5.193 2.322 4.969 5.432Z"/><path stroke="#fff" stroke-linecap="round" stroke-miterlimit="10" d="M19.312 28.688c-1.692-.776-3.556-1.074-5.53-1.074-4.876 0-9.573 2.424-10.75 7.144-.154.624.238 1.242.88 1.242h10.525"/></svg>