<svg xmlns="http://www.w3.org/2000/svg" width="48" height="48" fill="none"><path stroke="#fff" stroke-linecap="round" stroke-linejoin="round" d="M23.072 9.22v2.592a.188.188 0 0 1-.188.188h-7.24A3.643 3.643 0 0 0 12 15.643v7.241a.187.187 0 0 1-.188.188H9.22c-2.544 0-4.674 2.015-4.718 4.56a4.644 4.644 0 0 0 4.642 4.725h2.67a.187.187 0 0 1 .187.187v7.242a3.726 3.726 0 0 0 3.714 3.714h6.598a.188.188 0 0 0 .188-.188V40.79c0-2.754 2.389-5.033 5.142-5.071 2.8-.04 5.358 2.204 5.358 4.996v2.597a.188.188 0 0 0 .188.188h6.598a3.726 3.726 0 0 0 3.714-3.714v-6.599a.187.187 0 0 0-.188-.187H41.35c-2.838 0-5.282-2.32-5.349-5.156-.066-2.822 1.904-5.344 4.714-5.344h2.597a.188.188 0 0 0 .188-.188v-6.669A3.643 3.643 0 0 0 39.857 12h-7.313a.188.188 0 0 1-.187-.188v-2.67c0-2.59-2.125-4.642-4.725-4.642-2.6 0-4.56 2.175-4.56 4.72Z"/></svg>