<svg xmlns="http://www.w3.org/2000/svg" width="48" height="48" fill="none"><path stroke="#fff" stroke-linecap="round" stroke-linejoin="round" d="M43.295 5.045a.412.412 0 0 0-.31-.318C37.887 3.48 26.11 7.923 19.723 14.305a27.652 27.652 0 0 0-3.102 3.664c-1.969-.178-3.938-.028-5.614.703-4.733 2.081-6.11 7.517-6.495 9.85a.844.844 0 0 0 .919.976l7.6-.835c.005.573.04 1.146.103 1.716.04.394.216.761.497 1.04l2.943 2.942c.278.282.647.458 1.04.497.567.063 1.136.098 1.706.103l-.833 7.594a.844.844 0 0 0 .974.918c2.334-.375 7.78-1.752 9.85-6.485.731-1.678.881-3.636.712-5.596a27.543 27.543 0 0 0 3.674-3.102c6.411-6.375 10.826-17.893 9.598-23.245ZM27.999 20.032a4.003 4.003 0 1 1 5.66-5.662A4.003 4.003 0 0 1 28 20.032Z"/><path stroke="#fff" stroke-linecap="round" stroke-linejoin="round" d="M10.279 33a4.224 4.224 0 0 0-2.47 1.204C6.156 35.86 6 42 6 42s6.143-.157 7.795-1.81A4.193 4.193 0 0 0 15 37.718"/></svg>