<svg xmlns="http://www.w3.org/2000/svg" width="48" height="48" fill="none"><path stroke="#fff" stroke-linejoin="round" stroke-miterlimit="2" stroke-width=".995" d="M16.251 46.907a30.55 30.55 0 0 1-3.533-.217 38.412 38.412 0 0 1-3.595-.589 38.903 38.903 0 0 1-3.162-.806c-.95-.289-1.694-.558-2.231-.806l1.797-7.686c1.075.455 2.449.94 4.123 1.457 1.673.516 3.75.775 6.23.775 2.85 0 4.937-.537 6.26-1.612 1.322-1.074 1.983-2.52 1.983-4.339 0-1.116-.237-2.056-.713-2.82a5.449 5.449 0 0 0-1.952-1.86c-.827-.475-1.808-.806-2.944-.992a22.454 22.454 0 0 0-3.627-.279h-3.595v-7.438h4.091c.91 0 1.788-.083 2.635-.248a7.032 7.032 0 0 0 2.262-.837A4.38 4.38 0 0 0 21.86 17c.393-.682.59-1.54.59-2.573 0-.785-.166-1.467-.496-2.045a4.452 4.452 0 0 0-1.27-1.426 5.542 5.542 0 0 0-1.799-.837 7.858 7.858 0 0 0-2.076-.279c-1.777 0-3.42.269-4.928.806a20.579 20.579 0 0 0-4.122 1.984L4.474 5.872A31.438 31.438 0 0 1 6.798 4.57c.889-.454 1.87-.867 2.945-1.24a26.904 26.904 0 0 1 3.44-.93 19.41 19.41 0 0 1 3.874-.371c2.52 0 4.7.3 6.54.899 1.838.599 3.357 1.446 4.555 2.541a10.243 10.243 0 0 1 2.666 3.843c.578 1.467.868 3.069.868 4.804 0 1.694-.476 3.337-1.426 4.928-.95 1.591-2.232 2.8-3.843 3.626 2.231.91 3.957 2.263 5.176 4.06 1.219 1.798 1.828 3.957 1.828 6.478 0 1.983-.33 3.812-.992 5.486-.66 1.673-1.694 3.12-3.099 4.339-1.405 1.219-3.192 2.17-5.362 2.851-2.17.682-4.742 1.023-7.717 1.023Z"/></svg>