<svg xmlns="http://www.w3.org/2000/svg" width="48" height="48" fill="none"><path stroke="#fff" stroke-linejoin="round" stroke-miterlimit="2" stroke-width=".995" d="M32.306 14.767c0 1.57-.31 3.079-.93 4.525a20.893 20.893 0 0 1-2.418 4.184 34.285 34.285 0 0 1-3.347 3.874 142.47 142.47 0 0 1-3.657 3.533c-.62.579-1.291 1.23-2.015 1.953a51.528 51.528 0 0 0-2.076 2.2 57.418 57.418 0 0 0-1.767 2.077c-.516.64-.837 1.167-.96 1.58h18.471v7.749H4.97c-.083-.455-.124-1.033-.124-1.736V43.22c0-1.984.32-3.802.96-5.455a20.392 20.392 0 0 1 2.511-4.618 29.071 29.071 0 0 1 3.502-3.998c1.302-1.24 2.593-2.48 3.874-3.72a414.37 414.37 0 0 0 2.79-2.696 30.74 30.74 0 0 0 2.293-2.48c.661-.805 1.178-1.61 1.55-2.417a5.79 5.79 0 0 0 .558-2.448c0-1.819-.517-3.1-1.55-3.843-1.033-.744-2.314-1.116-3.843-1.116-1.116 0-2.16.176-3.13.527-.972.351-1.86.764-2.666 1.24-.806.475-1.498.95-2.076 1.425-.579.475-1.013.858-1.302 1.147L3.73 8.32c1.818-1.694 3.936-3.089 6.354-4.184 2.417-1.095 5.01-1.642 7.779-1.642 2.52 0 4.69.289 6.508.867 1.819.579 3.317 1.395 4.494 2.449a9.495 9.495 0 0 1 2.604 3.843c.558 1.508.837 3.213.837 5.114Z"/></svg>