<svg xmlns="http://www.w3.org/2000/svg" width="30" height="31" fill="none"><g clip-path="url(#a)"><path fill="#F7DF1E" d="M0 .5h30v30H0V.5Z"/><path fill="#000" d="m7.888 25.57 2.296-1.39c.443.786.846 1.45 1.812 1.45.927 0 1.51-.362 1.51-1.771v-9.586h2.82v9.625c0 2.92-1.712 4.25-4.209 4.25-2.255 0-3.564-1.168-4.229-2.578m9.97-.302 2.295-1.329c.604.987 1.39 1.712 2.779 1.712 1.168 0 1.913-.584 1.913-1.39 0-.966-.765-1.309-2.054-1.872l-.705-.303c-2.034-.865-3.383-1.953-3.383-4.249 0-2.114 1.61-3.725 4.128-3.725 1.793 0 3.081.624 4.008 2.255l-2.196 1.41c-.483-.866-1.006-1.208-1.812-1.208-.826 0-1.35.523-1.35 1.208 0 .846.524 1.188 1.733 1.712l.704.302c2.397 1.027 3.746 2.074 3.746 4.43 0 2.538-1.994 3.927-4.672 3.927-2.618 0-4.31-1.249-5.135-2.88"/></g><defs><clipPath id="a"><path fill="#fff" d="M0 .5h30v30H0z"/></clipPath></defs></svg>