<svg width="241" height="118" viewBox="0 0 241 118" fill="none" xmlns="http://www.w3.org/2000/svg">
<g clip-path="url(#clip0_131_4381)">
<path d="M22.7987 57.9774L31.1247 59.3154V68.9544H41.1258V75.8662H31.1247V86.177C31.1247 87.9236 31.431 89.3176 32.046 90.358C32.661 91.3983 33.8989 91.9179 35.7621 91.9179C36.6559 91.9179 37.5772 91.8344 38.5271 91.6673C39.4771 91.5002 40.3433 91.2678 41.1258 90.9702L42.2983 97.4357C41.2933 97.8454 40.1758 98.1979 38.9459 98.4954C37.7171 98.7919 36.2084 98.9407 34.4209 98.9407C32.1481 98.9407 30.2677 98.6339 28.7773 98.0216C27.2881 97.4081 26.0961 96.5532 25.2012 95.4579C24.3074 94.3615 23.6833 93.0327 23.3299 91.4727C22.9766 89.9116 22.7987 88.1845 22.7987 86.2892V57.9774Z" fill="#D2D2D2"/>
<path d="M66.3242 81.44C65.5784 84.2635 64.7868 87.0698 63.9492 89.8555C63.1105 92.6424 62.226 95.4488 61.2955 98.2723H54.8143C54.1431 96.7112 53.4169 94.8536 52.6345 92.6985C51.8532 90.5434 51.0432 88.1937 50.2045 85.6483C49.367 83.1029 48.5099 80.4087 47.6345 77.5658C46.7591 74.7239 45.9112 71.8535 45.092 68.9545H53.8644C54.1627 70.2924 54.4885 71.7517 54.8419 73.3299C55.1964 74.9094 55.5682 76.5357 55.9594 78.2067C56.3506 79.8788 56.7602 81.5601 57.1881 83.2517C57.6172 84.9422 58.0544 86.5674 58.5018 88.1285C58.986 86.493 59.461 84.8208 59.9268 83.1121C60.3914 81.4033 60.8389 79.7209 61.2668 78.0682C61.6959 76.4144 62.1055 74.8166 62.4967 73.275C62.888 71.7322 63.2322 70.2924 63.5305 68.9545H69.5641C69.8624 70.2924 70.1975 71.7322 70.5703 73.275C70.9421 74.8166 71.3333 76.4144 71.7429 78.0682C72.1536 79.7209 72.5815 81.4033 73.0278 83.1121C73.4753 84.8208 73.9411 86.493 74.4253 88.1285C74.8727 86.5674 75.319 84.9422 75.7665 83.2517C76.2128 81.5601 76.6327 79.8788 77.0228 78.2067C77.4141 76.5357 77.7869 74.9094 78.1403 73.3299C78.4948 71.7517 78.8206 70.2924 79.1189 68.9545H87.7788C86.9597 71.8535 86.1118 74.7239 85.2364 77.5658C84.361 80.4087 83.5039 83.1029 82.6664 85.6483C81.8288 88.1937 81.0086 90.5434 80.2077 92.6985C79.4069 94.8536 78.6715 96.7112 78.0014 98.2723H71.5203C70.5887 95.4488 69.6766 92.6424 68.7817 89.8555C67.8879 87.0698 67.0688 84.2635 66.3242 81.44Z" fill="#D2D2D2"/>
<path d="M100.573 98.2723H92.2486V68.9545H100.573V98.2723ZM101.356 59.4126C101.356 60.936 100.861 62.1343 99.8747 63.0076C98.8881 63.8809 97.7235 64.318 96.3823 64.318C95.0423 64.318 93.8778 63.8809 92.8911 63.0076C91.9033 62.1343 91.4099 60.936 91.4099 59.4126C91.4099 57.8893 91.9033 56.691 92.8911 55.8177C93.8778 54.9445 95.0423 54.5084 96.3823 54.5084C97.7235 54.5084 98.8881 54.9445 99.8747 55.8177C100.861 56.691 101.356 57.8893 101.356 59.4126Z" fill="#D2D2D2"/>
<path d="M116.832 92.3084C118.359 92.3084 119.44 92.1596 120.073 91.8632C120.706 91.5656 121.023 90.9899 121.023 90.135C121.023 89.4666 120.612 88.8806 119.793 88.3793C118.974 87.878 117.726 87.3115 116.05 86.6797C114.746 86.1967 113.563 85.6943 112.502 85.1747C111.441 84.6539 110.537 84.0313 109.792 83.3068C109.048 82.5823 108.471 81.7182 108.06 80.7156C107.65 79.7119 107.446 78.5044 107.446 77.0921C107.446 74.343 108.47 72.1695 110.518 70.5718C112.567 68.974 115.38 68.1752 118.956 68.1752C120.743 68.1752 122.456 68.3331 124.096 68.649C125.734 68.9649 127.039 69.3082 128.007 69.6802L126.554 76.1455C125.586 75.8102 124.533 75.5138 123.397 75.2529C122.261 74.9931 120.985 74.8637 119.57 74.8637C116.963 74.8637 115.659 75.5882 115.659 77.0372C115.659 77.3714 115.715 77.6689 115.827 77.9288C115.938 78.1886 116.162 78.4392 116.497 78.6807C116.832 78.9222 117.289 79.1831 117.866 79.4612C118.443 79.7405 119.179 80.0473 120.073 80.3814C121.899 81.0498 123.406 81.7091 124.598 82.3603C125.79 83.0104 126.731 83.7165 127.421 84.4776C128.109 85.2399 128.593 86.0845 128.873 87.0139C129.152 87.9421 129.292 89.0202 129.292 90.246C129.292 93.145 128.202 95.3368 126.023 96.8235C123.844 98.3091 120.762 99.053 116.776 99.053C114.169 99.053 112 98.8299 110.267 98.3835C108.535 97.9383 107.333 97.5663 106.663 97.2687L108.06 90.5252C109.476 91.0826 110.928 91.5187 112.418 91.8345C113.909 92.1504 115.38 92.3084 116.832 92.3084Z" fill="#D2D2D2"/>
<path d="M135.288 59.3154L143.539 57.9774V68.9544H153.54V75.8662H143.539V86.177C143.539 87.9236 143.847 89.3176 144.462 90.358C145.075 91.3983 146.314 91.9179 148.176 91.9179C149.07 91.9179 149.993 91.8344 150.943 91.6673C151.893 91.5002 152.758 91.2678 153.54 90.9702L154.714 97.4357C153.708 97.8454 152.59 98.1979 151.361 98.4954C150.133 98.7919 148.624 98.9407 146.835 98.9407C144.564 98.9407 142.682 98.6339 141.193 98.0216C139.702 97.4081 138.51 96.5532 137.617 95.4579C136.723 94.3615 136.099 93.0327 135.745 91.4727C135.391 89.9116 135.214 88.1845 135.214 86.2892L135.288 59.3154Z" fill="#D2D2D2"/>
<path d="M168.626 98.2723H160.301V68.9545H168.626V98.2723ZM169.409 59.4126C169.409 60.936 168.914 62.1343 167.927 63.0076C166.941 63.8809 165.776 64.318 164.435 64.318C163.095 64.318 161.931 63.8809 160.944 63.0076C159.956 62.1343 159.463 60.936 159.463 59.4126C159.463 57.8893 159.956 56.691 160.944 55.8177C161.931 54.9445 163.095 54.5084 164.435 54.5084C165.776 54.5084 166.941 54.9445 167.927 55.8177C168.914 56.691 169.409 57.8893 169.409 59.4126Z" fill="#D2D2D2"/>
<path d="M175.051 83.8367C175.051 81.2352 175.451 78.9599 176.252 77.0085C177.053 75.0583 178.105 73.4331 179.41 72.1318C180.713 70.8316 182.213 69.8473 183.907 69.1778C185.602 68.5094 187.343 68.1752 189.131 68.1752C193.302 68.1752 196.6 69.4479 199.021 71.9933C201.441 74.5375 202.652 78.2812 202.652 83.2232C202.652 83.7062 202.633 84.2361 202.597 84.8118C202.559 85.3875 202.522 85.8991 202.484 86.3443H183.6C183.785 88.0542 184.586 89.4105 186.002 90.4131C187.418 91.4168 189.317 91.9181 191.701 91.9181C193.228 91.9181 194.727 91.7796 196.199 91.5004C197.67 91.2222 198.871 90.8777 199.803 90.4691L200.921 97.2138C200.473 97.4358 199.878 97.659 199.132 97.8821C198.387 98.1053 197.559 98.2999 196.646 98.467C195.734 98.6341 194.755 98.7737 193.712 98.8859C192.669 98.9969 191.626 99.053 190.583 99.053C187.939 99.053 185.638 98.6627 183.683 97.8821C181.728 97.1016 180.107 96.0338 178.822 94.6775C177.537 93.3213 176.587 91.7144 175.973 89.8557C175.359 87.9981 175.051 85.9918 175.051 83.8367ZM194.607 80.6595C194.569 79.9534 194.449 79.2667 194.243 78.5971C194.039 77.9287 193.722 77.3347 193.293 76.814C192.865 76.2932 192.325 75.8663 191.673 75.5321C191.022 75.1979 190.212 75.0308 189.243 75.0308C188.312 75.0308 187.511 75.1887 186.841 75.5046C186.17 75.8205 185.611 76.2383 185.165 76.7579C184.717 77.2787 184.373 77.8818 184.131 78.5697C183.889 79.2575 183.711 79.9534 183.6 80.6595H194.607Z" fill="#D2D2D2"/>
<path d="M32.9675 43.0419C34.4957 43.0419 35.5754 42.8931 36.2087 42.5967C36.842 42.2991 37.1586 41.7234 37.1586 40.8685C37.1586 40.2001 36.749 39.6141 35.9287 39.1128C35.1095 38.6115 33.8624 38.045 32.1862 37.4132C30.8817 36.9302 29.7 36.4278 28.6376 35.9082C27.5763 35.3874 26.6734 34.7648 25.9276 34.0403C25.183 33.3158 24.606 32.4518 24.1964 31.4492C23.7868 30.4454 23.5814 29.2379 23.5814 27.8256C23.5814 25.0765 24.6059 22.903 26.6539 21.3053C28.703 19.7076 31.515 18.9087 35.0912 18.9087C36.8787 18.9087 38.5928 19.0666 40.2311 19.3825C41.8706 19.6984 43.1739 20.0418 44.1423 20.4137L42.6898 26.8791C41.7215 26.5437 40.6694 26.2473 39.5324 25.9864C38.3966 25.7266 37.1208 25.5972 35.7062 25.5972C33.0983 25.5972 31.795 26.3218 31.795 27.7707C31.795 28.1049 31.8501 28.4025 31.9625 28.6623C32.0738 28.9221 32.2975 29.1727 32.6325 29.4142C32.9675 29.6557 33.4241 29.9166 34.0012 30.1948C34.5795 30.474 35.3149 30.7808 36.2087 31.115C38.034 31.7834 39.5428 32.4426 40.7348 33.0938C41.9257 33.7439 42.8665 34.4501 43.556 35.2112C44.2444 35.9734 44.7286 36.8181 45.0085 37.7474C45.2873 38.6756 45.4273 39.7537 45.4273 40.9795C45.4273 43.8785 44.3385 46.0703 42.1586 47.557C39.9798 49.0426 36.8982 49.7865 32.9125 49.7865C30.3046 49.7865 28.1351 49.5634 26.4026 49.117C24.6713 48.6718 23.4701 48.2998 22.799 48.0023L24.1964 41.2588C25.611 41.8161 27.0646 42.2522 28.5538 42.5681C30.0442 42.8839 31.515 43.0419 32.9675 43.0419Z" fill="#0495BC"/>
<path d="M70.4582 34.5701C70.4582 32.0064 69.8812 29.9532 68.727 28.4115C67.5716 26.8687 65.8587 26.0985 63.5859 26.0985C62.8413 26.0985 62.1517 26.1259 61.5184 26.182C60.8851 26.2381 60.3643 26.3022 59.9547 26.3766V41.3696C60.4756 41.7038 61.1559 41.9831 61.9934 42.2063C62.8321 42.4295 63.6788 42.5405 64.5359 42.5405C68.4837 42.5405 70.4582 39.8841 70.4582 34.5701ZM78.9507 34.3469C78.9507 36.6142 78.6718 38.6755 78.1131 40.5342C77.5543 42.3917 76.7351 43.9894 75.6544 45.3274C74.5748 46.6653 73.2336 47.7057 71.6319 48.4485C70.0303 49.1912 68.1866 49.5632 66.1008 49.5632C64.9455 49.5632 63.8658 49.4522 62.8596 49.229C61.8546 49.0058 60.8851 48.69 59.9547 48.2814V59.3168H51.6298V20.6918C52.3744 20.4686 53.2315 20.2557 54.1998 20.0508C55.1681 19.8459 56.1835 19.6697 57.2447 19.5209C58.306 19.3733 59.3867 19.2519 60.4847 19.1592C61.5838 19.0665 62.6359 19.0197 63.6421 19.0197C66.0629 19.0197 68.2233 19.3824 70.1232 20.1069C72.0232 20.8314 73.6248 21.8535 74.9281 23.1719C76.2315 24.4916 77.2285 26.0984 77.9169 27.9937C78.6065 29.8879 78.9507 32.0064 78.9507 34.3469Z" fill="#0495BC"/>
<path d="M96.6065 43.209C97.4257 43.209 98.2081 43.1907 98.9527 43.1541C99.6985 43.1163 100.294 43.0602 100.741 42.987V36.6887C100.406 36.6143 99.9027 36.5399 99.2327 36.4656C98.5627 36.3912 97.9477 36.3534 97.389 36.3534C96.6065 36.3534 95.8711 36.4003 95.1816 36.493C94.4932 36.5857 93.8874 36.762 93.3665 37.0229C92.8445 37.2827 92.4349 37.6352 92.1366 38.0816C91.8395 38.528 91.6903 39.0853 91.6903 39.7537C91.6903 41.0539 92.1274 41.9558 93.0028 42.4571C93.8782 42.9584 95.0794 43.209 96.6065 43.209ZM95.9365 18.9087C98.394 18.9087 100.443 19.1869 102.083 19.7442C103.721 20.3016 105.033 21.1005 106.021 22.1408C107.008 23.1812 107.707 24.4447 108.116 25.9314C108.526 27.417 108.731 29.0709 108.731 30.8918V48.1694C107.539 48.4303 105.881 48.737 103.759 49.0895C101.635 49.442 99.0652 49.6194 96.0478 49.6194C94.1478 49.6194 92.4257 49.4524 90.8803 49.117C89.3337 48.7828 88.0028 48.2346 86.8854 47.4735C85.7679 46.7112 84.9109 45.7178 84.3143 44.4908C83.7188 43.2651 83.4205 41.7601 83.4205 39.9769C83.4205 38.267 83.7659 36.818 84.4543 35.6289C85.1438 34.4397 86.065 33.4933 87.2204 32.7871C88.3745 32.0809 89.6974 31.5693 91.1866 31.2534C92.677 30.9375 94.2224 30.7807 95.824 30.7807C96.9048 30.7807 97.864 30.8265 98.7015 30.9192C99.5402 31.0119 100.219 31.1333 100.741 31.2821V30.5015C100.741 29.0892 100.312 27.9561 99.4564 27.1011C98.5994 26.2473 97.1091 25.8193 94.9865 25.8193C93.5708 25.8193 92.1745 25.9223 90.7954 26.126C89.4175 26.3309 88.2254 26.6182 87.2204 26.9901L86.158 20.3016C86.6433 20.1528 87.2479 19.9949 87.9742 19.8278C88.7004 19.6607 89.4921 19.5119 90.3491 19.3825C91.2062 19.252 92.1091 19.1411 93.0591 19.0472C94.009 18.9545 94.9682 18.9087 95.9365 18.9087Z" fill="#0495BC"/>
<path d="M114.877 34.347C114.877 32.2297 115.222 30.2325 115.91 28.3555C116.599 26.4797 117.596 24.8441 118.9 23.4513C120.203 22.0572 121.786 20.9517 123.649 20.1345C125.512 19.3173 127.634 18.9087 130.018 18.9087C131.582 18.9087 133.016 19.0472 134.321 19.3264C135.624 19.6045 136.891 20.004 138.119 20.5247L136.388 27.1572C135.606 26.8597 134.749 26.5998 133.817 26.3767C132.887 26.1546 131.844 26.0425 130.688 26.0425C128.231 26.0425 126.396 26.8047 125.185 28.3281C123.974 29.8514 123.37 31.8577 123.37 34.347C123.37 36.9851 123.938 39.0292 125.073 40.4782C126.209 41.9271 128.193 42.6516 131.023 42.6516C132.03 42.6516 133.11 42.5589 134.265 42.3735C135.419 42.187 136.481 41.8905 137.449 41.4819L138.622 48.2815C137.654 48.6901 136.443 49.0426 134.991 49.3401C133.538 49.6377 131.937 49.7865 130.186 49.7865C127.503 49.7865 125.195 49.3871 123.257 48.5882C121.321 47.7893 119.728 46.7021 118.481 45.3275C117.233 43.9529 116.321 42.3266 115.742 40.4507C115.165 38.5737 114.877 36.5399 114.877 34.347Z" fill="#0495BC"/>
<path d="M141.416 34.5702C141.416 31.9688 141.816 29.6935 142.617 27.7421C143.418 25.7918 144.471 24.1666 145.774 22.8653C147.078 21.5651 148.577 20.5809 150.272 19.9113C151.966 19.2429 153.708 18.9087 155.495 18.9087C159.668 18.9087 162.964 20.1814 165.385 22.7268C167.806 25.271 169.016 29.0148 169.016 33.9568C169.016 34.4397 168.998 34.9697 168.961 35.5453C168.923 36.121 168.887 36.6326 168.849 37.0778H149.964C150.151 38.7877 150.952 40.144 152.367 41.1466C153.782 42.1503 155.682 42.6516 158.066 42.6516C159.593 42.6516 161.092 42.5131 162.564 42.2339C164.035 41.9558 165.236 41.6113 166.168 41.2027L167.285 47.9473C166.838 48.1693 166.242 48.3925 165.496 48.6157C164.752 48.8388 163.923 49.0335 163.01 49.2006C162.098 49.3677 161.121 49.5073 160.078 49.6194C159.035 49.7304 157.992 49.7865 156.949 49.7865C154.304 49.7865 152.004 49.3962 150.048 48.6157C148.093 47.8351 146.473 46.7673 145.188 45.411C143.902 44.0548 142.953 42.4479 142.338 40.5892C141.723 38.7317 141.416 36.7254 141.416 34.5702ZM160.971 31.3931C160.934 30.6869 160.813 30.0002 160.608 29.3306C160.403 28.6623 160.087 28.0683 159.658 27.5475C159.23 27.0268 158.689 26.5999 158.038 26.2657C157.386 25.9315 156.576 25.7643 155.608 25.7643C154.676 25.7643 153.875 25.9223 153.205 26.2381C152.534 26.554 151.975 26.9718 151.529 27.4914C151.082 28.0122 150.737 28.6153 150.495 29.3032C150.253 29.991 150.077 30.6869 149.964 31.3931H160.971Z" fill="#0495BC"/>
<path fill-rule="evenodd" clip-rule="evenodd" d="M225.454 67.9284V117.972H-0.00134277V0.00427246H186.346V3.89941H3.90597V114.074C33.52 114.074 221.547 114.074 221.547 114.074V67.9284H225.454Z" fill="#D2D2D2"/>
<path fill-rule="evenodd" clip-rule="evenodd" d="M215.862 22.3426C217.823 21.6451 219.934 21.2799 222.131 21.2799C224.292 21.2799 226.369 21.6451 228.304 22.3094C227.486 26.5772 225.224 30.3304 222.045 33.0372L215.862 22.3426Z" fill="#038E5B"/>
<path fill-rule="evenodd" clip-rule="evenodd" d="M197.582 33.0372C194.402 30.3304 192.14 26.5772 191.323 22.3094C193.257 21.6451 195.333 21.2799 197.495 21.2799C199.694 21.2799 201.807 21.6451 203.77 22.3426L197.582 33.0372Z" fill="#6B3A89"/>
<path fill-rule="evenodd" clip-rule="evenodd" d="M216.008 43.466C215.219 47.7505 212.977 51.5202 209.812 54.2437C206.649 51.5202 204.407 47.7505 203.618 43.466H216.008Z" fill="#E8631F"/>
<path fill-rule="evenodd" clip-rule="evenodd" d="M206.713 17.261C203.865 16.1151 200.753 15.4841 197.495 15.4841C195.301 15.4841 193.174 15.7664 191.15 16.2978C192.363 7.09786 200.262 -0.00973511 209.813 -0.00973511C219.365 -0.00973511 227.264 7.09786 228.475 16.2978C226.451 15.7664 224.325 15.4841 222.131 15.4841C218.875 15.4841 215.765 16.1151 212.921 17.261L209.818 11.8971L206.713 17.261Z" fill="#0495BC"/>
<path fill-rule="evenodd" clip-rule="evenodd" d="M224.986 38.1354C229.123 34.8972 232.199 30.3801 233.604 25.1657C238.074 28.6032 240.956 34.0004 240.956 40.0617C240.956 50.4242 232.521 58.827 222.131 58.827C219.583 58.827 217.151 58.3288 214.933 57.4155C218.619 53.7288 221.141 48.8798 221.895 43.466L228.074 43.466L224.986 38.1354Z" fill="#FDC407"/>
<path fill-rule="evenodd" clip-rule="evenodd" d="M197.732 43.466C198.486 48.8798 201.008 53.7288 204.693 57.4155C202.476 58.3288 200.044 58.827 197.495 58.827C187.106 58.827 178.671 50.4242 178.671 40.0617C178.671 34.0004 181.552 28.6032 186.021 25.1657C187.426 30.3801 190.504 34.8972 194.64 38.1354L191.549 43.466H197.732Z" fill="#C3057D"/>
</g>
<defs>
<clipPath id="clip0_131_4381">
<rect width="241" height="118" fill="white"/>
</clipPath>
</defs>
</svg>
