<?xml version="1.0" encoding="UTF-8" standalone="no"?>
<!DOCTYPE svg PUBLIC "-//W3C//DTD SVG 1.1//EN" "http://www.w3.org/Graphics/SVG/1.1/DTD/svg11.dtd">
<svg width="100%" height="100%" viewBox="0 0 1397 728" version="1.1" xmlns="http://www.w3.org/2000/svg" xmlns:xlink="http://www.w3.org/1999/xlink" xml:space="preserve" xmlns:serif="http://www.serif.com/" style="fill-rule:evenodd;clip-rule:evenodd;stroke-linejoin:round;stroke-miterlimit:2;">
    <g transform="matrix(1,0,0,1,-2845.29,-2472.81)">
        <g transform="matrix(1,0,0,1,66.6087,-60.75)">
            <g transform="matrix(1,0,0,1,2360.67,-13143.1)">
                <g transform="matrix(0.454888,0,0,0.454888,-1901.72,10993.7)">
                    <g transform="matrix(155.716,0,0,155.716,5487.43,11864.5)">
                        <path d="M0.055,-0.259C0.055,-0.304 0.062,-0.344 0.075,-0.378C0.088,-0.411 0.105,-0.439 0.126,-0.462C0.147,-0.485 0.171,-0.501 0.198,-0.513C0.225,-0.524 0.252,-0.529 0.281,-0.529C0.344,-0.529 0.395,-0.508 0.433,-0.467C0.47,-0.426 0.489,-0.362 0.489,-0.276C0.489,-0.271 0.489,-0.265 0.489,-0.26C0.488,-0.255 0.488,-0.25 0.487,-0.245L0.124,-0.245C0.126,-0.182 0.142,-0.133 0.171,-0.099C0.2,-0.065 0.247,-0.048 0.311,-0.048C0.346,-0.048 0.374,-0.051 0.395,-0.058C0.416,-0.065 0.431,-0.07 0.44,-0.075L0.452,-0.019C0.443,-0.014 0.425,-0.007 0.4,-0C0.374,0.007 0.344,0.011 0.309,0.011C0.264,0.011 0.225,0.004 0.193,-0.009C0.161,-0.022 0.135,-0.041 0.114,-0.065C0.093,-0.089 0.078,-0.118 0.069,-0.151C0.06,-0.184 0.055,-0.22 0.055,-0.259ZM0.422,-0.3C0.421,-0.354 0.408,-0.396 0.384,-0.426C0.36,-0.456 0.326,-0.471 0.282,-0.471C0.259,-0.471 0.238,-0.466 0.22,-0.457C0.201,-0.448 0.185,-0.435 0.172,-0.42C0.158,-0.404 0.147,-0.386 0.14,-0.365C0.132,-0.344 0.127,-0.323 0.126,-0.3L0.422,-0.3Z" style="fill:rgb(236,236,236);fill-rule:nonzero;"/>
                    </g>
                    <g transform="matrix(155.716,0,0,155.716,5574.32,11864.5)">
                        <path d="M0.248,-0.234C0.233,-0.215 0.219,-0.194 0.204,-0.173C0.189,-0.152 0.175,-0.131 0.162,-0.11C0.148,-0.089 0.135,-0.07 0.124,-0.051C0.113,-0.032 0.103,-0.015 0.095,-0L0.028,-0C0.055,-0.051 0.084,-0.099 0.114,-0.144C0.144,-0.188 0.175,-0.231 0.206,-0.274L0.038,-0.517L0.114,-0.517L0.248,-0.319L0.384,-0.517L0.455,-0.517L0.29,-0.278C0.304,-0.259 0.319,-0.239 0.335,-0.217C0.351,-0.195 0.367,-0.172 0.383,-0.149C0.399,-0.125 0.415,-0.1 0.43,-0.075C0.444,-0.05 0.458,-0.025 0.471,-0L0.401,-0C0.393,-0.015 0.383,-0.032 0.372,-0.051C0.361,-0.07 0.348,-0.089 0.335,-0.11C0.321,-0.131 0.307,-0.152 0.292,-0.173C0.277,-0.194 0.262,-0.215 0.248,-0.234Z" style="fill:rgb(236,236,236);fill-rule:nonzero;"/>
                    </g>
                    <g transform="matrix(155.716,0,0,155.716,5653.58,11864.5)">
                        <path d="M0.151,-0.093C0.157,-0.088 0.165,-0.083 0.174,-0.078C0.183,-0.073 0.193,-0.068 0.205,-0.063C0.217,-0.058 0.23,-0.055 0.244,-0.052C0.258,-0.049 0.273,-0.047 0.288,-0.047C0.32,-0.047 0.347,-0.053 0.369,-0.064C0.39,-0.075 0.408,-0.09 0.421,-0.109C0.434,-0.128 0.444,-0.15 0.45,-0.176C0.456,-0.201 0.459,-0.228 0.459,-0.257C0.459,-0.325 0.442,-0.377 0.408,-0.414C0.374,-0.45 0.329,-0.468 0.273,-0.468C0.241,-0.468 0.215,-0.467 0.196,-0.464C0.176,-0.46 0.161,-0.457 0.151,-0.454L0.151,-0.093ZM0.151,0.185L0.086,0.185L0.086,-0.499C0.105,-0.506 0.13,-0.512 0.16,-0.518C0.19,-0.524 0.228,-0.527 0.274,-0.527C0.312,-0.527 0.347,-0.521 0.378,-0.509C0.409,-0.496 0.435,-0.478 0.458,-0.455C0.48,-0.432 0.497,-0.403 0.51,-0.37C0.522,-0.337 0.528,-0.299 0.528,-0.257C0.528,-0.218 0.523,-0.182 0.513,-0.149C0.502,-0.116 0.487,-0.087 0.467,-0.064C0.447,-0.04 0.423,-0.021 0.394,-0.008C0.365,0.005 0.331,0.012 0.294,0.012C0.26,0.012 0.231,0.007 0.206,-0.003C0.181,-0.012 0.162,-0.021 0.151,-0.03L0.151,0.185Z" style="fill:rgb(236,236,236);fill-rule:nonzero;"/>
                    </g>
                    <g transform="matrix(155.716,0,0,155.716,5745.92,11864.5)">
                        <path d="M0.055,-0.259C0.055,-0.304 0.062,-0.344 0.075,-0.378C0.088,-0.411 0.105,-0.439 0.126,-0.462C0.147,-0.485 0.171,-0.501 0.198,-0.513C0.225,-0.524 0.252,-0.529 0.281,-0.529C0.344,-0.529 0.395,-0.508 0.433,-0.467C0.47,-0.426 0.489,-0.362 0.489,-0.276C0.489,-0.271 0.489,-0.265 0.489,-0.26C0.488,-0.255 0.488,-0.25 0.487,-0.245L0.124,-0.245C0.126,-0.182 0.142,-0.133 0.171,-0.099C0.2,-0.065 0.247,-0.048 0.311,-0.048C0.346,-0.048 0.374,-0.051 0.395,-0.058C0.416,-0.065 0.431,-0.07 0.44,-0.075L0.452,-0.019C0.443,-0.014 0.425,-0.007 0.4,-0C0.374,0.007 0.344,0.011 0.309,0.011C0.264,0.011 0.225,0.004 0.193,-0.009C0.161,-0.022 0.135,-0.041 0.114,-0.065C0.093,-0.089 0.078,-0.118 0.069,-0.151C0.06,-0.184 0.055,-0.22 0.055,-0.259ZM0.422,-0.3C0.421,-0.354 0.408,-0.396 0.384,-0.426C0.36,-0.456 0.326,-0.471 0.282,-0.471C0.259,-0.471 0.238,-0.466 0.22,-0.457C0.201,-0.448 0.185,-0.435 0.172,-0.42C0.158,-0.404 0.147,-0.386 0.14,-0.365C0.132,-0.344 0.127,-0.323 0.126,-0.3L0.422,-0.3Z" style="fill:rgb(236,236,236);fill-rule:nonzero;"/>
                    </g>
                    <g transform="matrix(155.716,0,0,155.716,5832.81,11864.5)">
                        <path d="M0.262,-0.527C0.283,-0.527 0.304,-0.525 0.323,-0.522C0.342,-0.519 0.355,-0.515 0.362,-0.512L0.349,-0.456C0.344,-0.459 0.333,-0.462 0.317,-0.465C0.3,-0.468 0.279,-0.469 0.252,-0.469C0.224,-0.469 0.202,-0.467 0.185,-0.463C0.167,-0.459 0.156,-0.456 0.151,-0.453L0.151,-0L0.086,-0L0.086,-0.493C0.103,-0.5 0.126,-0.508 0.155,-0.516C0.184,-0.523 0.22,-0.527 0.262,-0.527Z" style="fill:rgb(236,236,236);fill-rule:nonzero;"/>
                    </g>
                    <g transform="matrix(155.716,0,0,155.716,5892.6,11864.5)">
                        <path d="M0.147,-0.517L0.353,-0.517L0.353,-0.462L0.147,-0.462L0.147,-0.187C0.147,-0.158 0.15,-0.134 0.155,-0.116C0.16,-0.097 0.167,-0.083 0.176,-0.073C0.185,-0.063 0.197,-0.056 0.21,-0.053C0.223,-0.05 0.238,-0.048 0.254,-0.048C0.281,-0.048 0.303,-0.051 0.32,-0.058C0.337,-0.064 0.35,-0.07 0.359,-0.075L0.375,-0.021C0.366,-0.015 0.349,-0.008 0.326,-0.001C0.303,0.007 0.277,0.011 0.25,0.011C0.218,0.011 0.191,0.007 0.17,-0.002C0.148,-0.01 0.131,-0.023 0.118,-0.04C0.105,-0.057 0.095,-0.078 0.09,-0.103C0.085,-0.128 0.082,-0.158 0.082,-0.193L0.082,-0.669L0.147,-0.681L0.147,-0.517Z" style="fill:rgb(236,236,236);fill-rule:nonzero;"/>
                    </g>
                    <g transform="matrix(155.716,0,0,155.716,5954.42,11864.5)">
                        <path d="M0.151,-0L0.086,-0L0.086,-0.517L0.151,-0.517L0.151,-0ZM0.166,-0.673C0.166,-0.658 0.161,-0.646 0.152,-0.637C0.143,-0.628 0.131,-0.623 0.118,-0.623C0.105,-0.623 0.093,-0.628 0.084,-0.637C0.075,-0.646 0.07,-0.658 0.07,-0.673C0.07,-0.688 0.075,-0.701 0.084,-0.71C0.093,-0.719 0.105,-0.723 0.118,-0.723C0.131,-0.723 0.143,-0.719 0.152,-0.71C0.161,-0.701 0.166,-0.688 0.166,-0.673Z" style="fill:rgb(236,236,236);fill-rule:nonzero;"/>
                    </g>
                    <g transform="matrix(155.716,0,0,155.716,5992.89,11864.5)">
                        <path d="M0.192,-0.046C0.229,-0.046 0.26,-0.052 0.285,-0.065C0.309,-0.077 0.321,-0.098 0.321,-0.127C0.321,-0.141 0.319,-0.153 0.315,-0.163C0.31,-0.173 0.303,-0.182 0.293,-0.19C0.283,-0.198 0.27,-0.206 0.254,-0.213C0.237,-0.22 0.217,-0.229 0.193,-0.239C0.174,-0.247 0.155,-0.255 0.138,-0.264C0.121,-0.272 0.105,-0.282 0.092,-0.293C0.079,-0.304 0.068,-0.317 0.06,-0.332C0.052,-0.347 0.048,-0.366 0.048,-0.388C0.048,-0.43 0.064,-0.464 0.096,-0.49C0.127,-0.516 0.171,-0.529 0.226,-0.529C0.261,-0.529 0.291,-0.526 0.314,-0.52C0.337,-0.514 0.353,-0.509 0.362,-0.504L0.347,-0.446C0.339,-0.45 0.326,-0.455 0.307,-0.462C0.288,-0.469 0.26,-0.472 0.223,-0.472C0.208,-0.472 0.195,-0.471 0.182,-0.468C0.169,-0.464 0.157,-0.46 0.147,-0.454C0.137,-0.447 0.129,-0.439 0.123,-0.43C0.117,-0.42 0.114,-0.408 0.114,-0.394C0.114,-0.38 0.117,-0.368 0.122,-0.358C0.127,-0.348 0.135,-0.339 0.146,-0.332C0.156,-0.324 0.169,-0.317 0.184,-0.31C0.199,-0.303 0.216,-0.296 0.235,-0.288C0.255,-0.28 0.274,-0.272 0.293,-0.264C0.311,-0.255 0.327,-0.245 0.341,-0.234C0.355,-0.222 0.366,-0.208 0.375,-0.192C0.384,-0.175 0.388,-0.155 0.388,-0.13C0.388,-0.083 0.371,-0.048 0.336,-0.024C0.301,0 0.253,0.012 0.192,0.012C0.147,0.012 0.112,0.008 0.088,0.001C0.064,-0.007 0.048,-0.013 0.04,-0.017L0.057,-0.076C0.059,-0.075 0.063,-0.073 0.07,-0.07C0.077,-0.067 0.086,-0.063 0.097,-0.06C0.108,-0.056 0.122,-0.053 0.138,-0.05C0.153,-0.047 0.171,-0.046 0.192,-0.046Z" style="fill:rgb(236,236,236);fill-rule:nonzero;"/>
                    </g>
                    <g transform="matrix(155.716,0,0,155.716,6061.09,11864.5)">
                        <path d="M0.055,-0.259C0.055,-0.304 0.062,-0.344 0.075,-0.378C0.088,-0.411 0.105,-0.439 0.126,-0.462C0.147,-0.485 0.171,-0.501 0.198,-0.513C0.225,-0.524 0.252,-0.529 0.281,-0.529C0.344,-0.529 0.395,-0.508 0.433,-0.467C0.47,-0.426 0.489,-0.362 0.489,-0.276C0.489,-0.271 0.489,-0.265 0.489,-0.26C0.488,-0.255 0.488,-0.25 0.487,-0.245L0.124,-0.245C0.126,-0.182 0.142,-0.133 0.171,-0.099C0.2,-0.065 0.247,-0.048 0.311,-0.048C0.346,-0.048 0.374,-0.051 0.395,-0.058C0.416,-0.065 0.431,-0.07 0.44,-0.075L0.452,-0.019C0.443,-0.014 0.425,-0.007 0.4,-0C0.374,0.007 0.344,0.011 0.309,0.011C0.264,0.011 0.225,0.004 0.193,-0.009C0.161,-0.022 0.135,-0.041 0.114,-0.065C0.093,-0.089 0.078,-0.118 0.069,-0.151C0.06,-0.184 0.055,-0.22 0.055,-0.259ZM0.422,-0.3C0.421,-0.354 0.408,-0.396 0.384,-0.426C0.36,-0.456 0.326,-0.471 0.282,-0.471C0.259,-0.471 0.238,-0.466 0.22,-0.457C0.201,-0.448 0.185,-0.435 0.172,-0.42C0.158,-0.404 0.147,-0.386 0.14,-0.365C0.132,-0.344 0.127,-0.323 0.126,-0.3L0.422,-0.3Z" style="fill:rgb(236,236,236);fill-rule:nonzero;"/>
                    </g>
                    <g transform="matrix(155.716,0,0,155.716,6185.04,11864.5)">
                        <path d="M0.19,-0.294C0.19,-0.276 0.184,-0.26 0.172,-0.247C0.16,-0.234 0.144,-0.227 0.123,-0.227C0.102,-0.227 0.086,-0.234 0.074,-0.247C0.062,-0.26 0.056,-0.276 0.056,-0.294C0.056,-0.312 0.062,-0.328 0.074,-0.341C0.086,-0.354 0.102,-0.361 0.123,-0.361C0.144,-0.361 0.16,-0.354 0.172,-0.341C0.184,-0.328 0.19,-0.312 0.19,-0.294Z" style="fill:rgb(236,236,236);fill-rule:nonzero;"/>
                    </g>
                    <g transform="matrix(155.716,0,0,155.716,6261.96,11864.5)">
                        <path d="M0.147,-0.517L0.353,-0.517L0.353,-0.462L0.147,-0.462L0.147,-0.187C0.147,-0.158 0.15,-0.134 0.155,-0.116C0.16,-0.097 0.167,-0.083 0.176,-0.073C0.185,-0.063 0.197,-0.056 0.21,-0.053C0.223,-0.05 0.238,-0.048 0.254,-0.048C0.281,-0.048 0.303,-0.051 0.32,-0.058C0.337,-0.064 0.35,-0.07 0.359,-0.075L0.375,-0.021C0.366,-0.015 0.349,-0.008 0.326,-0.001C0.303,0.007 0.277,0.011 0.25,0.011C0.218,0.011 0.191,0.007 0.17,-0.002C0.148,-0.01 0.131,-0.023 0.118,-0.04C0.105,-0.057 0.095,-0.078 0.09,-0.103C0.085,-0.128 0.082,-0.158 0.082,-0.193L0.082,-0.669L0.147,-0.681L0.147,-0.517Z" style="fill:rgb(236,236,236);fill-rule:nonzero;"/>
                    </g>
                    <g transform="matrix(155.716,0,0,155.716,6323.78,11864.5)">
                        <path d="M0.262,-0.527C0.283,-0.527 0.304,-0.525 0.323,-0.522C0.342,-0.519 0.355,-0.515 0.362,-0.512L0.349,-0.456C0.344,-0.459 0.333,-0.462 0.317,-0.465C0.3,-0.468 0.279,-0.469 0.252,-0.469C0.224,-0.469 0.202,-0.467 0.185,-0.463C0.167,-0.459 0.156,-0.456 0.151,-0.453L0.151,-0L0.086,-0L0.086,-0.493C0.103,-0.5 0.126,-0.508 0.155,-0.516C0.184,-0.523 0.22,-0.527 0.262,-0.527Z" style="fill:rgb(236,236,236);fill-rule:nonzero;"/>
                    </g>
                    <g transform="matrix(155.716,0,0,155.716,6383.58,11864.5)">
                        <path d="M0.249,-0.047C0.274,-0.047 0.297,-0.048 0.316,-0.05C0.335,-0.051 0.351,-0.053 0.364,-0.056L0.364,-0.238C0.357,-0.241 0.345,-0.245 0.329,-0.249C0.313,-0.252 0.291,-0.254 0.263,-0.254C0.247,-0.254 0.23,-0.253 0.213,-0.251C0.196,-0.248 0.18,-0.243 0.165,-0.236C0.15,-0.228 0.138,-0.217 0.129,-0.204C0.12,-0.191 0.115,-0.173 0.115,-0.151C0.115,-0.132 0.118,-0.115 0.125,-0.102C0.131,-0.089 0.14,-0.078 0.152,-0.07C0.163,-0.062 0.177,-0.056 0.194,-0.053C0.21,-0.049 0.228,-0.047 0.249,-0.047ZM0.243,-0.529C0.277,-0.529 0.306,-0.524 0.33,-0.515C0.353,-0.505 0.372,-0.492 0.387,-0.475C0.402,-0.458 0.412,-0.437 0.419,-0.414C0.426,-0.391 0.429,-0.365 0.429,-0.338L0.429,-0.012C0.422,-0.01 0.413,-0.008 0.4,-0.006C0.387,-0.003 0.373,-0.001 0.356,0.002C0.339,0.005 0.321,0.007 0.301,0.009C0.28,0.01 0.259,0.011 0.238,0.011C0.211,0.011 0.186,0.008 0.163,0.002C0.139,-0.004 0.12,-0.014 0.103,-0.027C0.086,-0.04 0.072,-0.056 0.063,-0.077C0.053,-0.097 0.048,-0.122 0.048,-0.151C0.048,-0.179 0.053,-0.203 0.064,-0.223C0.075,-0.243 0.09,-0.26 0.109,-0.273C0.128,-0.286 0.151,-0.295 0.178,-0.301C0.205,-0.307 0.234,-0.31 0.265,-0.31C0.274,-0.31 0.284,-0.31 0.295,-0.309C0.305,-0.308 0.315,-0.306 0.325,-0.305C0.334,-0.303 0.343,-0.301 0.35,-0.3C0.357,-0.298 0.361,-0.296 0.364,-0.295L0.364,-0.327C0.364,-0.345 0.363,-0.363 0.36,-0.38C0.357,-0.397 0.352,-0.412 0.343,-0.426C0.334,-0.439 0.321,-0.45 0.305,-0.459C0.288,-0.467 0.267,-0.471 0.24,-0.471C0.202,-0.471 0.174,-0.468 0.155,-0.463C0.136,-0.458 0.123,-0.453 0.114,-0.45L0.105,-0.507C0.116,-0.512 0.134,-0.517 0.158,-0.522C0.181,-0.527 0.21,-0.529 0.243,-0.529Z" style="fill:rgb(236,236,236);fill-rule:nonzero;"/>
                    </g>
                    <g transform="matrix(155.716,0,0,155.716,6464.39,11864.5)">
                        <path d="M0.086,-0.499C0.105,-0.504 0.131,-0.51 0.164,-0.517C0.197,-0.524 0.237,-0.527 0.284,-0.527C0.323,-0.527 0.356,-0.521 0.383,-0.51C0.409,-0.499 0.43,-0.483 0.446,-0.462C0.461,-0.44 0.472,-0.415 0.479,-0.386C0.486,-0.357 0.489,-0.324 0.489,-0.289L0.489,-0L0.424,-0L0.424,-0.268C0.424,-0.305 0.422,-0.336 0.417,-0.361C0.412,-0.386 0.403,-0.407 0.392,-0.423C0.38,-0.439 0.365,-0.451 0.346,-0.458C0.327,-0.464 0.303,-0.468 0.274,-0.468C0.243,-0.468 0.217,-0.466 0.195,-0.463C0.172,-0.46 0.158,-0.457 0.151,-0.454L0.151,-0L0.086,-0L0.086,-0.499Z" style="fill:rgb(236,236,236);fill-rule:nonzero;"/>
                    </g>
                    <g transform="matrix(155.716,0,0,155.716,6554.55,11864.5)">
                        <path d="M0.192,-0.046C0.229,-0.046 0.26,-0.052 0.285,-0.065C0.309,-0.077 0.321,-0.098 0.321,-0.127C0.321,-0.141 0.319,-0.153 0.315,-0.163C0.31,-0.173 0.303,-0.182 0.293,-0.19C0.283,-0.198 0.27,-0.206 0.254,-0.213C0.237,-0.22 0.217,-0.229 0.193,-0.239C0.174,-0.247 0.155,-0.255 0.138,-0.264C0.121,-0.272 0.105,-0.282 0.092,-0.293C0.079,-0.304 0.068,-0.317 0.06,-0.332C0.052,-0.347 0.048,-0.366 0.048,-0.388C0.048,-0.43 0.064,-0.464 0.096,-0.49C0.127,-0.516 0.171,-0.529 0.226,-0.529C0.261,-0.529 0.291,-0.526 0.314,-0.52C0.337,-0.514 0.353,-0.509 0.362,-0.504L0.347,-0.446C0.339,-0.45 0.326,-0.455 0.307,-0.462C0.288,-0.469 0.26,-0.472 0.223,-0.472C0.208,-0.472 0.195,-0.471 0.182,-0.468C0.169,-0.464 0.157,-0.46 0.147,-0.454C0.137,-0.447 0.129,-0.439 0.123,-0.43C0.117,-0.42 0.114,-0.408 0.114,-0.394C0.114,-0.38 0.117,-0.368 0.122,-0.358C0.127,-0.348 0.135,-0.339 0.146,-0.332C0.156,-0.324 0.169,-0.317 0.184,-0.31C0.199,-0.303 0.216,-0.296 0.235,-0.288C0.255,-0.28 0.274,-0.272 0.293,-0.264C0.311,-0.255 0.327,-0.245 0.341,-0.234C0.355,-0.222 0.366,-0.208 0.375,-0.192C0.384,-0.175 0.388,-0.155 0.388,-0.13C0.388,-0.083 0.371,-0.048 0.336,-0.024C0.301,0 0.253,0.012 0.192,0.012C0.147,0.012 0.112,0.008 0.088,0.001C0.064,-0.007 0.048,-0.013 0.04,-0.017L0.057,-0.076C0.059,-0.075 0.063,-0.073 0.07,-0.07C0.077,-0.067 0.086,-0.063 0.097,-0.06C0.108,-0.056 0.122,-0.053 0.138,-0.05C0.153,-0.047 0.171,-0.046 0.192,-0.046Z" style="fill:rgb(236,236,236);fill-rule:nonzero;"/>
                    </g>
                    <g transform="matrix(155.716,0,0,155.716,6622.76,11864.5)">
                        <path d="M0.151,-0.093C0.157,-0.088 0.165,-0.083 0.174,-0.078C0.183,-0.073 0.193,-0.068 0.205,-0.063C0.217,-0.058 0.23,-0.055 0.244,-0.052C0.258,-0.049 0.273,-0.047 0.288,-0.047C0.32,-0.047 0.347,-0.053 0.369,-0.064C0.39,-0.075 0.408,-0.09 0.421,-0.109C0.434,-0.128 0.444,-0.15 0.45,-0.176C0.456,-0.201 0.459,-0.228 0.459,-0.257C0.459,-0.325 0.442,-0.377 0.408,-0.414C0.374,-0.45 0.329,-0.468 0.273,-0.468C0.241,-0.468 0.215,-0.467 0.196,-0.464C0.176,-0.46 0.161,-0.457 0.151,-0.454L0.151,-0.093ZM0.151,0.185L0.086,0.185L0.086,-0.499C0.105,-0.506 0.13,-0.512 0.16,-0.518C0.19,-0.524 0.228,-0.527 0.274,-0.527C0.312,-0.527 0.347,-0.521 0.378,-0.509C0.409,-0.496 0.435,-0.478 0.458,-0.455C0.48,-0.432 0.497,-0.403 0.51,-0.37C0.522,-0.337 0.528,-0.299 0.528,-0.257C0.528,-0.218 0.523,-0.182 0.513,-0.149C0.502,-0.116 0.487,-0.087 0.467,-0.064C0.447,-0.04 0.423,-0.021 0.394,-0.008C0.365,0.005 0.331,0.012 0.294,0.012C0.26,0.012 0.231,0.007 0.206,-0.003C0.181,-0.012 0.162,-0.021 0.151,-0.03L0.151,0.185Z" style="fill:rgb(236,236,236);fill-rule:nonzero;"/>
                    </g>
                    <g transform="matrix(155.716,0,0,155.716,6715.1,11864.5)">
                        <path d="M0.249,-0.047C0.274,-0.047 0.297,-0.048 0.316,-0.05C0.335,-0.051 0.351,-0.053 0.364,-0.056L0.364,-0.238C0.357,-0.241 0.345,-0.245 0.329,-0.249C0.313,-0.252 0.291,-0.254 0.263,-0.254C0.247,-0.254 0.23,-0.253 0.213,-0.251C0.196,-0.248 0.18,-0.243 0.165,-0.236C0.15,-0.228 0.138,-0.217 0.129,-0.204C0.12,-0.191 0.115,-0.173 0.115,-0.151C0.115,-0.132 0.118,-0.115 0.125,-0.102C0.131,-0.089 0.14,-0.078 0.152,-0.07C0.163,-0.062 0.177,-0.056 0.194,-0.053C0.21,-0.049 0.228,-0.047 0.249,-0.047ZM0.243,-0.529C0.277,-0.529 0.306,-0.524 0.33,-0.515C0.353,-0.505 0.372,-0.492 0.387,-0.475C0.402,-0.458 0.412,-0.437 0.419,-0.414C0.426,-0.391 0.429,-0.365 0.429,-0.338L0.429,-0.012C0.422,-0.01 0.413,-0.008 0.4,-0.006C0.387,-0.003 0.373,-0.001 0.356,0.002C0.339,0.005 0.321,0.007 0.301,0.009C0.28,0.01 0.259,0.011 0.238,0.011C0.211,0.011 0.186,0.008 0.163,0.002C0.139,-0.004 0.12,-0.014 0.103,-0.027C0.086,-0.04 0.072,-0.056 0.063,-0.077C0.053,-0.097 0.048,-0.122 0.048,-0.151C0.048,-0.179 0.053,-0.203 0.064,-0.223C0.075,-0.243 0.09,-0.26 0.109,-0.273C0.128,-0.286 0.151,-0.295 0.178,-0.301C0.205,-0.307 0.234,-0.31 0.265,-0.31C0.274,-0.31 0.284,-0.31 0.295,-0.309C0.305,-0.308 0.315,-0.306 0.325,-0.305C0.334,-0.303 0.343,-0.301 0.35,-0.3C0.357,-0.298 0.361,-0.296 0.364,-0.295L0.364,-0.327C0.364,-0.345 0.363,-0.363 0.36,-0.38C0.357,-0.397 0.352,-0.412 0.343,-0.426C0.334,-0.439 0.321,-0.45 0.305,-0.459C0.288,-0.467 0.267,-0.471 0.24,-0.471C0.202,-0.471 0.174,-0.468 0.155,-0.463C0.136,-0.458 0.123,-0.453 0.114,-0.45L0.105,-0.507C0.116,-0.512 0.134,-0.517 0.158,-0.522C0.181,-0.527 0.21,-0.529 0.243,-0.529Z" style="fill:rgb(236,236,236);fill-rule:nonzero;"/>
                    </g>
                    <g transform="matrix(155.716,0,0,155.716,6795.91,11864.5)">
                        <path d="M0.262,-0.527C0.283,-0.527 0.304,-0.525 0.323,-0.522C0.342,-0.519 0.355,-0.515 0.362,-0.512L0.349,-0.456C0.344,-0.459 0.333,-0.462 0.317,-0.465C0.3,-0.468 0.279,-0.469 0.252,-0.469C0.224,-0.469 0.202,-0.467 0.185,-0.463C0.167,-0.459 0.156,-0.456 0.151,-0.453L0.151,-0L0.086,-0L0.086,-0.493C0.103,-0.5 0.126,-0.508 0.155,-0.516C0.184,-0.523 0.22,-0.527 0.262,-0.527Z" style="fill:rgb(236,236,236);fill-rule:nonzero;"/>
                    </g>
                    <g transform="matrix(155.716,0,0,155.716,6855.71,11864.5)">
                        <path d="M0.055,-0.259C0.055,-0.304 0.062,-0.344 0.075,-0.378C0.088,-0.411 0.105,-0.439 0.126,-0.462C0.147,-0.485 0.171,-0.501 0.198,-0.513C0.225,-0.524 0.252,-0.529 0.281,-0.529C0.344,-0.529 0.395,-0.508 0.433,-0.467C0.47,-0.426 0.489,-0.362 0.489,-0.276C0.489,-0.271 0.489,-0.265 0.489,-0.26C0.488,-0.255 0.488,-0.25 0.487,-0.245L0.124,-0.245C0.126,-0.182 0.142,-0.133 0.171,-0.099C0.2,-0.065 0.247,-0.048 0.311,-0.048C0.346,-0.048 0.374,-0.051 0.395,-0.058C0.416,-0.065 0.431,-0.07 0.44,-0.075L0.452,-0.019C0.443,-0.014 0.425,-0.007 0.4,-0C0.374,0.007 0.344,0.011 0.309,0.011C0.264,0.011 0.225,0.004 0.193,-0.009C0.161,-0.022 0.135,-0.041 0.114,-0.065C0.093,-0.089 0.078,-0.118 0.069,-0.151C0.06,-0.184 0.055,-0.22 0.055,-0.259ZM0.422,-0.3C0.421,-0.354 0.408,-0.396 0.384,-0.426C0.36,-0.456 0.326,-0.471 0.282,-0.471C0.259,-0.471 0.238,-0.466 0.22,-0.457C0.201,-0.448 0.185,-0.435 0.172,-0.42C0.158,-0.404 0.147,-0.386 0.14,-0.365C0.132,-0.344 0.127,-0.323 0.126,-0.3L0.422,-0.3Z" style="fill:rgb(236,236,236);fill-rule:nonzero;"/>
                    </g>
                    <g transform="matrix(155.716,0,0,155.716,6942.6,11864.5)">
                        <path d="M0.086,-0.499C0.105,-0.504 0.131,-0.51 0.164,-0.517C0.197,-0.524 0.237,-0.527 0.284,-0.527C0.323,-0.527 0.356,-0.521 0.383,-0.51C0.409,-0.499 0.43,-0.483 0.446,-0.462C0.461,-0.44 0.472,-0.415 0.479,-0.386C0.486,-0.357 0.489,-0.324 0.489,-0.289L0.489,-0L0.424,-0L0.424,-0.268C0.424,-0.305 0.422,-0.336 0.417,-0.361C0.412,-0.386 0.403,-0.407 0.392,-0.423C0.38,-0.439 0.365,-0.451 0.346,-0.458C0.327,-0.464 0.303,-0.468 0.274,-0.468C0.243,-0.468 0.217,-0.466 0.195,-0.463C0.172,-0.46 0.158,-0.457 0.151,-0.454L0.151,-0L0.086,-0L0.086,-0.499Z" style="fill:rgb(236,236,236);fill-rule:nonzero;"/>
                    </g>
                    <g transform="matrix(155.716,0,0,155.716,7032.76,11864.5)">
                        <path d="M0.3,0.011C0.26,0.011 0.225,0.005 0.194,-0.008C0.163,-0.021 0.138,-0.039 0.118,-0.063C0.097,-0.086 0.082,-0.115 0.071,-0.148C0.06,-0.181 0.055,-0.217 0.055,-0.257C0.055,-0.298 0.061,-0.335 0.072,-0.368C0.083,-0.401 0.098,-0.43 0.119,-0.454C0.14,-0.478 0.165,-0.497 0.194,-0.51C0.223,-0.523 0.256,-0.529 0.293,-0.529C0.321,-0.529 0.347,-0.527 0.372,-0.522C0.396,-0.517 0.415,-0.511 0.428,-0.504L0.411,-0.448C0.398,-0.455 0.383,-0.46 0.366,-0.464C0.349,-0.468 0.327,-0.47 0.299,-0.47C0.242,-0.47 0.198,-0.452 0.169,-0.415C0.139,-0.378 0.124,-0.325 0.124,-0.257C0.124,-0.226 0.127,-0.198 0.134,-0.173C0.141,-0.147 0.152,-0.125 0.167,-0.107C0.182,-0.088 0.201,-0.074 0.225,-0.064C0.248,-0.053 0.277,-0.048 0.311,-0.048C0.339,-0.048 0.363,-0.051 0.382,-0.058C0.401,-0.064 0.414,-0.069 0.423,-0.074L0.437,-0.018C0.425,-0.011 0.406,-0.005 0.381,0.002C0.355,0.008 0.328,0.011 0.3,0.011Z" style="fill:rgb(236,236,236);fill-rule:nonzero;"/>
                    </g>
                    <g transform="matrix(155.716,0,0,155.716,7107.66,11864.5)">
                        <path d="M0.227,0.011C0.205,-0.03 0.184,-0.072 0.164,-0.116C0.143,-0.16 0.124,-0.204 0.107,-0.25C0.089,-0.295 0.073,-0.339 0.058,-0.385C0.043,-0.43 0.031,-0.474 0.02,-0.517L0.089,-0.517C0.096,-0.485 0.106,-0.451 0.117,-0.414C0.128,-0.377 0.141,-0.338 0.156,-0.299C0.17,-0.26 0.186,-0.219 0.203,-0.178C0.22,-0.137 0.239,-0.096 0.259,-0.056C0.274,-0.097 0.287,-0.136 0.298,-0.173C0.309,-0.21 0.32,-0.246 0.33,-0.283C0.339,-0.319 0.349,-0.356 0.358,-0.394C0.367,-0.432 0.376,-0.473 0.386,-0.517L0.451,-0.517C0.43,-0.42 0.405,-0.326 0.378,-0.235C0.351,-0.144 0.321,-0.06 0.289,0.016C0.276,0.046 0.263,0.072 0.25,0.094C0.237,0.115 0.222,0.133 0.206,0.147C0.189,0.161 0.17,0.171 0.149,0.178C0.127,0.185 0.101,0.188 0.072,0.188C0.055,0.188 0.04,0.186 0.027,0.182C0.013,0.178 0.004,0.175 0.001,0.173L0.014,0.119C0.017,0.121 0.024,0.124 0.037,0.128C0.049,0.131 0.062,0.133 0.075,0.133C0.094,0.133 0.111,0.131 0.126,0.127C0.14,0.123 0.154,0.116 0.166,0.107C0.178,0.097 0.189,0.084 0.199,0.069C0.208,0.054 0.218,0.034 0.227,0.011Z" style="fill:rgb(236,236,236);fill-rule:nonzero;"/>
                    </g>
                    <g transform="matrix(155.716,0,0,155.716,7220.08,11864.5)">
                        <path d="M0.19,-0.294C0.19,-0.276 0.184,-0.26 0.172,-0.247C0.16,-0.234 0.144,-0.227 0.123,-0.227C0.102,-0.227 0.086,-0.234 0.074,-0.247C0.062,-0.26 0.056,-0.276 0.056,-0.294C0.056,-0.312 0.062,-0.328 0.074,-0.341C0.086,-0.354 0.102,-0.361 0.123,-0.361C0.144,-0.361 0.16,-0.354 0.172,-0.341C0.184,-0.328 0.19,-0.312 0.19,-0.294Z" style="fill:rgb(236,236,236);fill-rule:nonzero;"/>
                    </g>
                    <g transform="matrix(155.716,0,0,155.716,7297.01,11864.5)">
                        <path d="M0.432,-0.454C0.422,-0.457 0.407,-0.46 0.388,-0.464C0.368,-0.467 0.342,-0.468 0.31,-0.468C0.254,-0.468 0.209,-0.45 0.175,-0.414C0.141,-0.377 0.124,-0.325 0.124,-0.257C0.124,-0.228 0.127,-0.201 0.133,-0.176C0.139,-0.15 0.149,-0.128 0.162,-0.109C0.175,-0.09 0.193,-0.075 0.215,-0.064C0.236,-0.053 0.263,-0.047 0.295,-0.047C0.31,-0.047 0.325,-0.049 0.339,-0.052C0.353,-0.055 0.366,-0.058 0.378,-0.063C0.39,-0.068 0.401,-0.073 0.41,-0.078C0.419,-0.083 0.426,-0.088 0.432,-0.093L0.432,-0.454ZM0.432,-0.03C0.421,-0.021 0.403,-0.012 0.378,-0.003C0.353,0.007 0.323,0.012 0.289,0.012C0.252,0.012 0.219,0.005 0.19,-0.008C0.161,-0.021 0.136,-0.04 0.116,-0.064C0.096,-0.087 0.081,-0.116 0.071,-0.149C0.06,-0.182 0.055,-0.218 0.055,-0.257C0.055,-0.299 0.061,-0.337 0.074,-0.37C0.086,-0.403 0.103,-0.432 0.126,-0.455C0.148,-0.478 0.175,-0.496 0.206,-0.509C0.237,-0.521 0.271,-0.527 0.309,-0.527C0.355,-0.527 0.393,-0.524 0.423,-0.518C0.453,-0.512 0.478,-0.506 0.497,-0.499L0.497,0.185L0.432,0.185L0.432,-0.03Z" style="fill:rgb(236,236,236);fill-rule:nonzero;"/>
                    </g>
                    <g transform="matrix(155.716,0,0,155.716,7389.35,11864.5)">
                        <path d="M0.483,-0.018C0.464,-0.013 0.438,-0.007 0.405,-0C0.372,0.007 0.332,0.01 0.285,0.01C0.246,0.01 0.214,0.004 0.188,-0.007C0.162,-0.018 0.141,-0.034 0.125,-0.055C0.109,-0.076 0.097,-0.101 0.091,-0.13C0.084,-0.159 0.08,-0.192 0.08,-0.227L0.08,-0.517L0.145,-0.517L0.145,-0.248C0.145,-0.211 0.148,-0.18 0.153,-0.155C0.158,-0.13 0.167,-0.109 0.179,-0.094C0.191,-0.078 0.207,-0.067 0.226,-0.06C0.245,-0.053 0.268,-0.049 0.295,-0.049C0.326,-0.049 0.352,-0.051 0.375,-0.054C0.398,-0.057 0.412,-0.06 0.418,-0.063L0.418,-0.517L0.483,-0.517L0.483,-0.018Z" style="fill:rgb(236,236,236);fill-rule:nonzero;"/>
                    </g>
                    <g transform="matrix(155.716,0,0,155.716,7479.51,11864.5)">
                        <path d="M0.249,-0.047C0.274,-0.047 0.297,-0.048 0.316,-0.05C0.335,-0.051 0.351,-0.053 0.364,-0.056L0.364,-0.238C0.357,-0.241 0.345,-0.245 0.329,-0.249C0.313,-0.252 0.291,-0.254 0.263,-0.254C0.247,-0.254 0.23,-0.253 0.213,-0.251C0.196,-0.248 0.18,-0.243 0.165,-0.236C0.15,-0.228 0.138,-0.217 0.129,-0.204C0.12,-0.191 0.115,-0.173 0.115,-0.151C0.115,-0.132 0.118,-0.115 0.125,-0.102C0.131,-0.089 0.14,-0.078 0.152,-0.07C0.163,-0.062 0.177,-0.056 0.194,-0.053C0.21,-0.049 0.228,-0.047 0.249,-0.047ZM0.243,-0.529C0.277,-0.529 0.306,-0.524 0.33,-0.515C0.353,-0.505 0.372,-0.492 0.387,-0.475C0.402,-0.458 0.412,-0.437 0.419,-0.414C0.426,-0.391 0.429,-0.365 0.429,-0.338L0.429,-0.012C0.422,-0.01 0.413,-0.008 0.4,-0.006C0.387,-0.003 0.373,-0.001 0.356,0.002C0.339,0.005 0.321,0.007 0.301,0.009C0.28,0.01 0.259,0.011 0.238,0.011C0.211,0.011 0.186,0.008 0.163,0.002C0.139,-0.004 0.12,-0.014 0.103,-0.027C0.086,-0.04 0.072,-0.056 0.063,-0.077C0.053,-0.097 0.048,-0.122 0.048,-0.151C0.048,-0.179 0.053,-0.203 0.064,-0.223C0.075,-0.243 0.09,-0.26 0.109,-0.273C0.128,-0.286 0.151,-0.295 0.178,-0.301C0.205,-0.307 0.234,-0.31 0.265,-0.31C0.274,-0.31 0.284,-0.31 0.295,-0.309C0.305,-0.308 0.315,-0.306 0.325,-0.305C0.334,-0.303 0.343,-0.301 0.35,-0.3C0.357,-0.298 0.361,-0.296 0.364,-0.295L0.364,-0.327C0.364,-0.345 0.363,-0.363 0.36,-0.38C0.357,-0.397 0.352,-0.412 0.343,-0.426C0.334,-0.439 0.321,-0.45 0.305,-0.459C0.288,-0.467 0.267,-0.471 0.24,-0.471C0.202,-0.471 0.174,-0.468 0.155,-0.463C0.136,-0.458 0.123,-0.453 0.114,-0.45L0.105,-0.507C0.116,-0.512 0.134,-0.517 0.158,-0.522C0.181,-0.527 0.21,-0.529 0.243,-0.529Z" style="fill:rgb(236,236,236);fill-rule:nonzero;"/>
                    </g>
                    <g transform="matrix(155.716,0,0,155.716,7560.32,11864.5)">
                        <path d="M0.217,0.009C0.195,0.008 0.176,0.006 0.16,0.001C0.143,-0.005 0.13,-0.012 0.119,-0.023C0.108,-0.033 0.099,-0.046 0.094,-0.063C0.088,-0.079 0.085,-0.099 0.085,-0.124L0.085,-0.764L0.15,-0.776L0.15,-0.126C0.15,-0.11 0.152,-0.097 0.155,-0.088C0.158,-0.078 0.162,-0.07 0.168,-0.065C0.174,-0.059 0.182,-0.055 0.192,-0.052C0.201,-0.049 0.213,-0.047 0.226,-0.045L0.217,0.009Z" style="fill:rgb(236,236,236);fill-rule:nonzero;"/>
                    </g>
                    <g transform="matrix(155.716,0,0,155.716,7601.59,11864.5)">
                        <path d="M0.151,-0L0.086,-0L0.086,-0.517L0.151,-0.517L0.151,-0ZM0.166,-0.673C0.166,-0.658 0.161,-0.646 0.152,-0.637C0.143,-0.628 0.131,-0.623 0.118,-0.623C0.105,-0.623 0.093,-0.628 0.084,-0.637C0.075,-0.646 0.07,-0.658 0.07,-0.673C0.07,-0.688 0.075,-0.701 0.084,-0.71C0.093,-0.719 0.105,-0.723 0.118,-0.723C0.131,-0.723 0.143,-0.719 0.152,-0.71C0.161,-0.701 0.166,-0.688 0.166,-0.673Z" style="fill:rgb(236,236,236);fill-rule:nonzero;"/>
                    </g>
                    <g transform="matrix(155.716,0,0,155.716,7640.05,11864.5)">
                        <path d="M0.147,-0.517L0.353,-0.517L0.353,-0.462L0.147,-0.462L0.147,-0.187C0.147,-0.158 0.15,-0.134 0.155,-0.116C0.16,-0.097 0.167,-0.083 0.176,-0.073C0.185,-0.063 0.197,-0.056 0.21,-0.053C0.223,-0.05 0.238,-0.048 0.254,-0.048C0.281,-0.048 0.303,-0.051 0.32,-0.058C0.337,-0.064 0.35,-0.07 0.359,-0.075L0.375,-0.021C0.366,-0.015 0.349,-0.008 0.326,-0.001C0.303,0.007 0.277,0.011 0.25,0.011C0.218,0.011 0.191,0.007 0.17,-0.002C0.148,-0.01 0.131,-0.023 0.118,-0.04C0.105,-0.057 0.095,-0.078 0.09,-0.103C0.085,-0.128 0.082,-0.158 0.082,-0.193L0.082,-0.669L0.147,-0.681L0.147,-0.517Z" style="fill:rgb(236,236,236);fill-rule:nonzero;"/>
                    </g>
                    <g transform="matrix(155.716,0,0,155.716,7701.87,11864.5)">
                        <path d="M0.227,0.011C0.205,-0.03 0.184,-0.072 0.164,-0.116C0.143,-0.16 0.124,-0.204 0.107,-0.25C0.089,-0.295 0.073,-0.339 0.058,-0.385C0.043,-0.43 0.031,-0.474 0.02,-0.517L0.089,-0.517C0.096,-0.485 0.106,-0.451 0.117,-0.414C0.128,-0.377 0.141,-0.338 0.156,-0.299C0.17,-0.26 0.186,-0.219 0.203,-0.178C0.22,-0.137 0.239,-0.096 0.259,-0.056C0.274,-0.097 0.287,-0.136 0.298,-0.173C0.309,-0.21 0.32,-0.246 0.33,-0.283C0.339,-0.319 0.349,-0.356 0.358,-0.394C0.367,-0.432 0.376,-0.473 0.386,-0.517L0.451,-0.517C0.43,-0.42 0.405,-0.326 0.378,-0.235C0.351,-0.144 0.321,-0.06 0.289,0.016C0.276,0.046 0.263,0.072 0.25,0.094C0.237,0.115 0.222,0.133 0.206,0.147C0.189,0.161 0.17,0.171 0.149,0.178C0.127,0.185 0.101,0.188 0.072,0.188C0.055,0.188 0.04,0.186 0.027,0.182C0.013,0.178 0.004,0.175 0.001,0.173L0.014,0.119C0.017,0.121 0.024,0.124 0.037,0.128C0.049,0.131 0.062,0.133 0.075,0.133C0.094,0.133 0.111,0.131 0.126,0.127C0.14,0.123 0.154,0.116 0.166,0.107C0.178,0.097 0.189,0.084 0.199,0.069C0.208,0.054 0.218,0.034 0.227,0.011Z" style="fill:rgb(236,236,236);fill-rule:nonzero;"/>
                    </g>
                </g>
                <g transform="matrix(4.73572,0,0,4.73572,-3264.5,12947.2)">
                    <g transform="matrix(50.1508,0,0,50.1508,775.749,701.368)">
                        <path d="M0.208,-0.087C0.24,-0.087 0.263,-0.091 0.278,-0.099C0.293,-0.106 0.3,-0.119 0.3,-0.138C0.3,-0.155 0.292,-0.17 0.277,-0.181C0.261,-0.192 0.235,-0.205 0.199,-0.218C0.177,-0.226 0.157,-0.235 0.139,-0.244C0.12,-0.253 0.104,-0.263 0.091,-0.275C0.078,-0.287 0.067,-0.302 0.06,-0.319C0.052,-0.335 0.048,-0.356 0.048,-0.381C0.048,-0.429 0.066,-0.467 0.101,-0.495C0.136,-0.522 0.184,-0.536 0.245,-0.536C0.276,-0.536 0.305,-0.533 0.333,-0.528C0.361,-0.522 0.382,-0.516 0.396,-0.511L0.374,-0.413C0.361,-0.419 0.344,-0.424 0.323,-0.43C0.302,-0.435 0.278,-0.437 0.251,-0.437C0.226,-0.437 0.206,-0.433 0.191,-0.425C0.176,-0.416 0.168,-0.403 0.168,-0.386C0.168,-0.377 0.17,-0.37 0.173,-0.363C0.175,-0.356 0.181,-0.35 0.188,-0.345C0.195,-0.339 0.205,-0.333 0.217,-0.328C0.229,-0.322 0.244,-0.316 0.261,-0.31C0.29,-0.299 0.314,-0.289 0.334,-0.279C0.354,-0.268 0.371,-0.257 0.384,-0.244C0.397,-0.231 0.406,-0.216 0.412,-0.199C0.418,-0.182 0.421,-0.162 0.421,-0.139C0.421,-0.089 0.403,-0.051 0.366,-0.026C0.329,0 0.276,0.013 0.207,0.013C0.161,0.013 0.124,0.009 0.096,0.002C0.068,-0.006 0.048,-0.012 0.037,-0.017L0.058,-0.118C0.076,-0.111 0.097,-0.104 0.123,-0.097C0.148,-0.09 0.176,-0.087 0.208,-0.087Z" style="fill:rgb(4,149,188);fill-rule:nonzero;"/>
                    </g>
                    <g transform="matrix(50.1508,0,0,50.1508,799.42,701.368)">
                        <path d="M0.424,-0.259C0.424,-0.313 0.412,-0.355 0.388,-0.385C0.363,-0.415 0.324,-0.43 0.27,-0.43C0.259,-0.43 0.247,-0.43 0.235,-0.429C0.222,-0.428 0.21,-0.425 0.198,-0.422L0.198,-0.123C0.209,-0.116 0.223,-0.109 0.241,-0.103C0.258,-0.096 0.277,-0.093 0.297,-0.093C0.341,-0.093 0.373,-0.108 0.394,-0.138C0.414,-0.168 0.424,-0.208 0.424,-0.259ZM0.548,-0.261C0.548,-0.221 0.543,-0.184 0.533,-0.151C0.522,-0.118 0.507,-0.089 0.488,-0.065C0.469,-0.041 0.445,-0.022 0.416,-0.009C0.387,0.004 0.354,0.011 0.317,0.011C0.292,0.011 0.27,0.008 0.249,0.002C0.228,-0.004 0.211,-0.011 0.198,-0.018L0.198,0.185L0.077,0.185L0.077,-0.506C0.102,-0.513 0.132,-0.519 0.168,-0.525C0.204,-0.531 0.242,-0.534 0.282,-0.534C0.323,-0.534 0.36,-0.528 0.393,-0.515C0.426,-0.502 0.454,-0.484 0.477,-0.461C0.5,-0.437 0.517,-0.408 0.53,-0.375C0.542,-0.341 0.548,-0.303 0.548,-0.261Z" style="fill:rgb(4,149,188);fill-rule:nonzero;"/>
                    </g>
                    <g transform="matrix(50.1508,0,0,50.1508,830.062,701.368)">
                        <path d="M0.261,-0.085C0.298,-0.085 0.327,-0.087 0.346,-0.091L0.346,-0.225C0.339,-0.227 0.33,-0.229 0.317,-0.231C0.304,-0.233 0.29,-0.234 0.275,-0.234C0.262,-0.234 0.248,-0.233 0.235,-0.231C0.221,-0.229 0.209,-0.225 0.198,-0.22C0.187,-0.215 0.178,-0.207 0.171,-0.198C0.164,-0.188 0.161,-0.176 0.161,-0.161C0.161,-0.132 0.17,-0.113 0.188,-0.102C0.206,-0.091 0.23,-0.085 0.261,-0.085ZM0.251,-0.536C0.291,-0.536 0.325,-0.531 0.352,-0.521C0.379,-0.511 0.401,-0.497 0.418,-0.479C0.434,-0.461 0.446,-0.439 0.453,-0.414C0.46,-0.388 0.463,-0.36 0.463,-0.329L0.463,-0.012C0.444,-0.008 0.416,-0.003 0.379,0.003C0.341,0.008 0.298,0.011 0.251,0.011C0.22,0.011 0.191,0.008 0.165,0.002C0.139,-0.004 0.117,-0.014 0.099,-0.027C0.08,-0.04 0.066,-0.058 0.056,-0.079C0.045,-0.1 0.04,-0.127 0.04,-0.158C0.04,-0.188 0.046,-0.213 0.058,-0.234C0.069,-0.255 0.085,-0.272 0.105,-0.285C0.125,-0.298 0.148,-0.307 0.175,-0.313C0.201,-0.318 0.228,-0.321 0.257,-0.321C0.27,-0.321 0.284,-0.32 0.299,-0.319C0.314,-0.317 0.329,-0.314 0.346,-0.31L0.346,-0.33C0.346,-0.344 0.344,-0.357 0.341,-0.37C0.338,-0.383 0.332,-0.394 0.324,-0.404C0.315,-0.413 0.304,-0.421 0.291,-0.426C0.277,-0.431 0.26,-0.434 0.239,-0.434C0.211,-0.434 0.185,-0.432 0.162,-0.428C0.139,-0.424 0.12,-0.419 0.105,-0.414L0.09,-0.512C0.105,-0.517 0.128,-0.523 0.157,-0.528C0.186,-0.533 0.218,-0.536 0.251,-0.536Z" style="fill:rgb(4,149,188);fill-rule:nonzero;"/>
                    </g>
                    <g transform="matrix(50.1508,0,0,50.1508,857.595,701.368)">
                        <path d="M0.048,-0.261C0.048,-0.3 0.054,-0.336 0.066,-0.37C0.078,-0.403 0.095,-0.432 0.118,-0.457C0.14,-0.482 0.167,-0.501 0.199,-0.515C0.231,-0.529 0.267,-0.536 0.307,-0.536C0.356,-0.536 0.403,-0.527 0.447,-0.509L0.421,-0.41C0.407,-0.416 0.391,-0.421 0.374,-0.425C0.356,-0.429 0.337,-0.431 0.317,-0.431C0.27,-0.431 0.234,-0.416 0.209,-0.387C0.184,-0.357 0.172,-0.315 0.172,-0.261C0.172,-0.209 0.184,-0.168 0.207,-0.138C0.23,-0.107 0.27,-0.092 0.325,-0.092C0.346,-0.092 0.366,-0.094 0.386,-0.098C0.406,-0.102 0.423,-0.107 0.438,-0.113L0.455,-0.013C0.442,-0.006 0.422,-0 0.395,0.005C0.368,0.01 0.34,0.013 0.311,0.013C0.266,0.013 0.228,0.006 0.195,-0.008C0.162,-0.021 0.134,-0.04 0.113,-0.065C0.091,-0.089 0.075,-0.118 0.064,-0.152C0.053,-0.185 0.048,-0.222 0.048,-0.261Z" style="fill:rgb(4,149,188);fill-rule:nonzero;"/>
                    </g>
                    <g transform="matrix(50.1508,0,0,50.1508,882.019,701.368)">
                        <path d="M0.048,-0.259C0.048,-0.305 0.055,-0.345 0.069,-0.38C0.082,-0.415 0.1,-0.444 0.123,-0.467C0.146,-0.49 0.172,-0.507 0.201,-0.519C0.23,-0.53 0.26,-0.536 0.291,-0.536C0.363,-0.536 0.419,-0.514 0.46,-0.469C0.5,-0.424 0.52,-0.358 0.52,-0.269C0.52,-0.262 0.52,-0.255 0.52,-0.247C0.519,-0.238 0.519,-0.231 0.518,-0.224L0.173,-0.224C0.176,-0.182 0.191,-0.15 0.218,-0.127C0.244,-0.103 0.282,-0.092 0.332,-0.092C0.361,-0.092 0.388,-0.095 0.413,-0.1C0.437,-0.105 0.456,-0.111 0.47,-0.117L0.486,-0.018C0.479,-0.015 0.47,-0.011 0.459,-0.008C0.447,-0.004 0.434,-0.001 0.419,0.003C0.404,0.006 0.387,0.008 0.37,0.01C0.353,0.012 0.335,0.013 0.317,0.013C0.271,0.013 0.231,0.006 0.197,-0.008C0.163,-0.021 0.135,-0.04 0.113,-0.065C0.091,-0.089 0.075,-0.118 0.064,-0.151C0.053,-0.184 0.048,-0.22 0.048,-0.259ZM0.399,-0.313C0.399,-0.33 0.397,-0.345 0.392,-0.361C0.387,-0.376 0.381,-0.389 0.372,-0.4C0.363,-0.411 0.352,-0.419 0.339,-0.426C0.326,-0.432 0.31,-0.435 0.292,-0.435C0.273,-0.435 0.257,-0.432 0.243,-0.425C0.229,-0.418 0.217,-0.408 0.208,-0.397C0.198,-0.386 0.19,-0.373 0.185,-0.358C0.18,-0.343 0.176,-0.328 0.174,-0.313L0.399,-0.313Z" style="fill:rgb(4,149,188);fill-rule:nonzero;"/>
                    </g>
                    <g transform="matrix(50.1508,0,0,50.1508,911.407,701.368)">
                        <path d="M0.071,-0.661L0.192,-0.681L0.192,-0.523L0.378,-0.523L0.378,-0.422L0.192,-0.422L0.192,-0.209C0.192,-0.167 0.199,-0.137 0.212,-0.119C0.225,-0.101 0.248,-0.092 0.28,-0.092C0.302,-0.092 0.322,-0.094 0.339,-0.099C0.356,-0.104 0.369,-0.108 0.379,-0.112L0.399,-0.016C0.385,-0.01 0.367,-0.004 0.344,0.003C0.321,0.009 0.295,0.012 0.264,0.012C0.227,0.012 0.196,0.007 0.171,-0.003C0.146,-0.013 0.126,-0.028 0.111,-0.047C0.096,-0.066 0.086,-0.089 0.08,-0.116C0.074,-0.142 0.071,-0.173 0.071,-0.208L0.071,-0.661Z" style="fill:rgb(236,236,236);fill-rule:nonzero;"/>
                    </g>
                    <g transform="matrix(50.1508,0,0,50.1508,933.122,701.368)">
                        <path d="M0.389,-0.329C0.374,-0.27 0.357,-0.213 0.34,-0.158C0.322,-0.102 0.304,-0.049 0.287,-0L0.188,-0C0.175,-0.031 0.161,-0.066 0.146,-0.105C0.131,-0.144 0.117,-0.186 0.102,-0.231C0.087,-0.276 0.073,-0.323 0.058,-0.372C0.043,-0.421 0.029,-0.472 0.015,-0.523L0.143,-0.523C0.149,-0.495 0.156,-0.465 0.164,-0.433C0.172,-0.4 0.18,-0.367 0.189,-0.334C0.198,-0.3 0.207,-0.267 0.216,-0.235C0.225,-0.203 0.235,-0.174 0.244,-0.147C0.254,-0.178 0.264,-0.209 0.274,-0.242C0.283,-0.275 0.292,-0.307 0.301,-0.34C0.31,-0.373 0.318,-0.405 0.326,-0.436C0.333,-0.466 0.34,-0.496 0.346,-0.523L0.439,-0.523C0.445,-0.496 0.452,-0.466 0.459,-0.436C0.466,-0.405 0.474,-0.373 0.483,-0.34C0.491,-0.307 0.5,-0.275 0.51,-0.242C0.519,-0.209 0.529,-0.178 0.539,-0.147C0.548,-0.174 0.557,-0.203 0.566,-0.235C0.575,-0.267 0.584,-0.3 0.594,-0.334C0.603,-0.367 0.611,-0.4 0.619,-0.433C0.627,-0.465 0.634,-0.495 0.64,-0.523L0.765,-0.523C0.751,-0.472 0.737,-0.421 0.722,-0.372C0.707,-0.323 0.693,-0.276 0.678,-0.231C0.663,-0.186 0.649,-0.144 0.634,-0.105C0.619,-0.066 0.605,-0.031 0.591,-0L0.493,-0C0.476,-0.049 0.458,-0.102 0.44,-0.158C0.421,-0.213 0.404,-0.27 0.389,-0.329Z" style="fill:rgb(236,236,236);fill-rule:nonzero;"/>
                    </g>
                    <g transform="matrix(50.1508,0,0,50.1508,972.741,701.368)">
                        <path d="M0.199,-0L0.078,-0L0.078,-0.523L0.199,-0.523L0.199,-0ZM0.212,-0.676C0.212,-0.653 0.205,-0.635 0.19,-0.622C0.175,-0.609 0.158,-0.602 0.138,-0.602C0.117,-0.602 0.1,-0.609 0.085,-0.622C0.07,-0.635 0.063,-0.653 0.063,-0.676C0.063,-0.699 0.07,-0.718 0.085,-0.731C0.1,-0.744 0.117,-0.751 0.138,-0.751C0.158,-0.751 0.175,-0.744 0.19,-0.731C0.205,-0.718 0.212,-0.699 0.212,-0.676Z" style="fill:rgb(236,236,236);fill-rule:nonzero;"/>
                    </g>
                    <g transform="matrix(50.1508,0,0,50.1508,987.084,701.368)">
                        <path d="M0.208,-0.087C0.24,-0.087 0.263,-0.091 0.278,-0.099C0.293,-0.106 0.3,-0.119 0.3,-0.138C0.3,-0.155 0.292,-0.17 0.277,-0.181C0.261,-0.192 0.235,-0.205 0.199,-0.218C0.177,-0.226 0.157,-0.235 0.139,-0.244C0.12,-0.253 0.104,-0.263 0.091,-0.275C0.078,-0.287 0.067,-0.302 0.06,-0.319C0.052,-0.335 0.048,-0.356 0.048,-0.381C0.048,-0.429 0.066,-0.467 0.101,-0.495C0.136,-0.522 0.184,-0.536 0.245,-0.536C0.276,-0.536 0.305,-0.533 0.333,-0.528C0.361,-0.522 0.382,-0.516 0.396,-0.511L0.374,-0.413C0.361,-0.419 0.344,-0.424 0.323,-0.43C0.302,-0.435 0.278,-0.437 0.251,-0.437C0.226,-0.437 0.206,-0.433 0.191,-0.425C0.176,-0.416 0.168,-0.403 0.168,-0.386C0.168,-0.377 0.17,-0.37 0.173,-0.363C0.175,-0.356 0.181,-0.35 0.188,-0.345C0.195,-0.339 0.205,-0.333 0.217,-0.328C0.229,-0.322 0.244,-0.316 0.261,-0.31C0.29,-0.299 0.314,-0.289 0.334,-0.279C0.354,-0.268 0.371,-0.257 0.384,-0.244C0.397,-0.231 0.406,-0.216 0.412,-0.199C0.418,-0.182 0.421,-0.162 0.421,-0.139C0.421,-0.089 0.403,-0.051 0.366,-0.026C0.329,0 0.276,0.013 0.207,0.013C0.161,0.013 0.124,0.009 0.096,0.002C0.068,-0.006 0.048,-0.012 0.037,-0.017L0.058,-0.118C0.076,-0.111 0.097,-0.104 0.123,-0.097C0.148,-0.09 0.176,-0.087 0.208,-0.087Z" style="fill:rgb(236,236,236);fill-rule:nonzero;"/>
                    </g>
                    <g transform="matrix(50.1508,0,0,50.1508,1010.5,701.368)">
                        <path d="M0.071,-0.661L0.192,-0.681L0.192,-0.523L0.378,-0.523L0.378,-0.422L0.192,-0.422L0.192,-0.209C0.192,-0.167 0.199,-0.137 0.212,-0.119C0.225,-0.101 0.248,-0.092 0.28,-0.092C0.302,-0.092 0.322,-0.094 0.339,-0.099C0.356,-0.104 0.369,-0.108 0.379,-0.112L0.399,-0.016C0.385,-0.01 0.367,-0.004 0.344,0.003C0.321,0.009 0.295,0.012 0.264,0.012C0.227,0.012 0.196,0.007 0.171,-0.003C0.146,-0.013 0.126,-0.028 0.111,-0.047C0.096,-0.066 0.086,-0.089 0.08,-0.116C0.074,-0.142 0.071,-0.173 0.071,-0.208L0.071,-0.661Z" style="fill:rgb(236,236,236);fill-rule:nonzero;"/>
                    </g>
                    <g transform="matrix(50.1508,0,0,50.1508,1031.97,701.368)">
                        <path d="M0.199,-0L0.078,-0L0.078,-0.523L0.199,-0.523L0.199,-0ZM0.212,-0.676C0.212,-0.653 0.205,-0.635 0.19,-0.622C0.175,-0.609 0.158,-0.602 0.138,-0.602C0.117,-0.602 0.1,-0.609 0.085,-0.622C0.07,-0.635 0.063,-0.653 0.063,-0.676C0.063,-0.699 0.07,-0.718 0.085,-0.731C0.1,-0.744 0.117,-0.751 0.138,-0.751C0.158,-0.751 0.175,-0.744 0.19,-0.731C0.205,-0.718 0.212,-0.699 0.212,-0.676Z" style="fill:rgb(236,236,236);fill-rule:nonzero;"/>
                    </g>
                    <g transform="matrix(50.1508,0,0,50.1508,1046.31,701.368)">
                        <path d="M0.048,-0.259C0.048,-0.305 0.055,-0.345 0.069,-0.38C0.082,-0.415 0.1,-0.444 0.123,-0.467C0.146,-0.49 0.172,-0.507 0.201,-0.519C0.23,-0.53 0.26,-0.536 0.291,-0.536C0.363,-0.536 0.419,-0.514 0.46,-0.469C0.5,-0.424 0.52,-0.358 0.52,-0.269C0.52,-0.262 0.52,-0.255 0.52,-0.247C0.519,-0.238 0.519,-0.231 0.518,-0.224L0.173,-0.224C0.176,-0.182 0.191,-0.15 0.218,-0.127C0.244,-0.103 0.282,-0.092 0.332,-0.092C0.361,-0.092 0.388,-0.095 0.413,-0.1C0.437,-0.105 0.456,-0.111 0.47,-0.117L0.486,-0.018C0.479,-0.015 0.47,-0.011 0.459,-0.008C0.447,-0.004 0.434,-0.001 0.419,0.003C0.404,0.006 0.387,0.008 0.37,0.01C0.353,0.012 0.335,0.013 0.317,0.013C0.271,0.013 0.231,0.006 0.197,-0.008C0.163,-0.021 0.135,-0.04 0.113,-0.065C0.091,-0.089 0.075,-0.118 0.064,-0.151C0.053,-0.184 0.048,-0.22 0.048,-0.259ZM0.399,-0.313C0.399,-0.33 0.397,-0.345 0.392,-0.361C0.387,-0.376 0.381,-0.389 0.372,-0.4C0.363,-0.411 0.352,-0.419 0.339,-0.426C0.326,-0.432 0.31,-0.435 0.292,-0.435C0.273,-0.435 0.257,-0.432 0.243,-0.425C0.229,-0.418 0.217,-0.408 0.208,-0.397C0.198,-0.386 0.19,-0.373 0.185,-0.358C0.18,-0.343 0.176,-0.328 0.174,-0.313L0.399,-0.313Z" style="fill:rgb(236,236,236);fill-rule:nonzero;"/>
                    </g>
                </g>
                <g transform="matrix(1.6394,0,0,8.6726,-1967.11,2446.7)">
                    <g>
                        <g transform="matrix(0.609979,0,0,0.115306,-1050.96,0)">
                            <path d="M4769.74,13449.7C4757.96,13453.9 4745.28,13456.1 4732.08,13456.1C4719.1,13456.1 4706.62,13453.9 4695,13449.9C4699.91,13424.2 4713.5,13401.6 4732.6,13385.3L4769.74,13449.7Z" style="fill:rgb(107,58,137);"/>
                        </g>
                        <g transform="matrix(0.609979,0,0,0.115306,-1050.96,0)">
                            <path d="M4879.55,13385.3C4898.65,13401.6 4912.24,13424.2 4917.15,13449.9C4905.53,13453.9 4893.06,13456.1 4880.07,13456.1C4866.86,13456.1 4854.17,13453.9 4842.38,13449.7L4879.55,13385.3Z" style="fill:rgb(232,99,31);"/>
                        </g>
                        <g transform="matrix(0.609979,0,0,0.115306,-1050.96,0)">
                            <path d="M4768.86,13322.5C4773.6,13296.7 4787.07,13274 4806.08,13257.6C4825.08,13274 4838.55,13296.7 4843.29,13322.5L4768.86,13322.5Z" style="fill:rgb(3,142,91);"/>
                        </g>
                        <g transform="matrix(0.609979,0,0,0.115306,-1050.96,0)">
                            <path d="M4824.7,13480.3C4841.81,13487.2 4860.5,13491 4880.07,13491C4893.25,13491 4906.03,13489.3 4918.19,13486.1C4910.9,13541.5 4863.45,13584.3 4806.08,13584.3C4748.7,13584.3 4701.25,13541.5 4693.97,13486.1C4706.13,13489.3 4718.9,13491 4732.08,13491C4751.64,13491 4770.32,13487.2 4787.41,13480.3L4806.05,13512.6L4824.7,13480.3Z" style="fill:rgb(195,5,125);"/>
                        </g>
                        <g transform="matrix(0.609979,0,0,0.115306,-1050.96,0)">
                            <path d="M4714.93,13354.6C4690.08,13374.1 4671.6,13401.3 4663.16,13432.7C4636.31,13412 4619,13379.5 4619,13343C4619,13280.6 4669.67,13230 4732.08,13230C4747.39,13230 4762,13233 4775.32,13238.5C4753.18,13260.7 4738.03,13289.9 4733.5,13322.5L4696.38,13322.5L4714.93,13354.6Z" style="fill:rgb(4,149,188);"/>
                        </g>
                        <g transform="matrix(0.609979,0,0,0.115306,-1050.96,0)">
                            <path d="M4878.65,13322.5C4874.12,13289.9 4858.97,13260.7 4836.83,13238.5C4850.15,13233 4864.76,13230 4880.07,13230C4942.48,13230 4993.15,13280.6 4993.15,13343C4993.15,13379.5 4975.84,13412 4949,13432.7C4940.56,13401.3 4922.07,13374.1 4897.22,13354.6L4915.79,13322.5L4878.65,13322.5Z" style="fill:rgb(253,196,7);"/>
                        </g>
                    </g>
                </g>
            </g>
        </g>
    </g>
</svg>
