<svg xmlns="http://www.w3.org/2000/svg" width="48" height="48" fill="none"><path stroke="#fff" stroke-linejoin="round" stroke-miterlimit="2" stroke-width=".995" d="M23.69 32.837c0-1.199-.27-2.263-.806-3.193-.538-.93-1.467-1.704-2.79-2.324-1.322-.62-3.1-1.095-5.33-1.426-2.232-.33-5.042-.496-8.43-.496a261.87 261.87 0 0 0 1.115-11.715c.29-3.967.517-7.686.682-11.158h23.245v7.749H15.879a228.036 228.036 0 0 1-.279 4.308 82.259 82.259 0 0 1-.34 3.626c6.033.413 10.485 1.828 13.357 4.246 2.872 2.417 4.308 5.775 4.308 10.073 0 1.983-.35 3.822-1.053 5.517a11.868 11.868 0 0 1-3.162 4.4c-1.405 1.24-3.171 2.211-5.3 2.914-2.128.702-4.617 1.054-7.469 1.054-1.116 0-2.283-.073-3.502-.217a45.106 45.106 0 0 1-3.533-.558 46.149 46.149 0 0 1-3.069-.713c-.909-.248-1.611-.496-2.107-.744l1.673-7.624c1.034.454 2.397.899 4.092 1.333 1.694.433 3.719.65 6.074.65 2.852 0 4.918-.568 6.199-1.704 1.28-1.137 1.921-2.47 1.921-3.998Z"/></svg>