<svg xmlns="http://www.w3.org/2000/svg" width="16" height="26" fill="none"><path fill="#fff" d="M6.604 23.38c1.2 0 2.196-.132 2.988-.396.816-.288 1.464-.672 1.944-1.152.48-.48.816-1.032 1.008-1.656a6.562 6.562 0 0 0 .324-2.088c0-.96-.156-1.824-.468-2.592-.312-.768-.864-1.416-1.656-1.944-.792-.528-1.86-.924-3.204-1.188-1.344-.288-3.048-.432-5.112-.432.144-1.224.264-2.34.36-3.348.096-1.032.18-2.016.252-2.952.072-.96.12-1.884.144-2.772.048-.912.084-1.848.108-2.808h11.232v2.052h-9.18c-.024.456-.06 1.044-.108 1.764S5.14 5.332 5.092 6.1a56.114 56.114 0 0 1-.18 2.16c-.072.696-.132 1.248-.18 1.656 1.848.048 3.444.276 4.788.684 1.344.408 2.448.96 3.312 1.656a6.297 6.297 0 0 1 1.908 2.52c.432.984.648 2.076.648 3.276 0 1.056-.18 2.04-.54 2.952a6.09 6.09 0 0 1-1.584 2.376c-.72.672-1.632 1.2-2.736 1.584-1.104.384-2.412.576-3.924.576-.768 0-1.488-.06-2.16-.18A15.194 15.194 0 0 1 2.68 25a13.593 13.593 0 0 1-1.296-.432 6.865 6.865 0 0 1-.792-.36l.612-2.088c.144.096.384.216.72.36.36.144.768.288 1.224.432.48.12 1.008.228 1.584.324.6.096 1.224.144 1.872.144Z"/></svg>