<svg xmlns="http://www.w3.org/2000/svg" width="16" height="27" fill="none"><path fill="#fff" d="M6.46 24.38c2.28 0 3.912-.468 4.896-1.404.984-.96 1.476-2.244 1.476-3.852 0-1.056-.204-1.932-.612-2.628a4.294 4.294 0 0 0-1.62-1.656c-.672-.432-1.464-.732-2.376-.9a13.439 13.439 0 0 0-2.844-.288h-.36v-1.944h.828c.648 0 1.308-.06 1.98-.18a5.39 5.39 0 0 0 1.872-.756 4.245 4.245 0 0 0 1.404-1.44c.384-.6.576-1.368.576-2.304 0-.792-.132-1.464-.396-2.016-.264-.576-.624-1.032-1.08-1.368a4.009 4.009 0 0 0-1.548-.72 6.527 6.527 0 0 0-1.836-.252c-1.296 0-2.304.18-3.024.54-.72.36-1.308.696-1.764 1.008L1.024 2.384c.24-.168.54-.36.9-.576A10.355 10.355 0 0 1 4.912.728 8.953 8.953 0 0 1 6.928.512c1.248 0 2.316.156 3.204.468.912.312 1.668.756 2.268 1.332a5.03 5.03 0 0 1 1.332 2.016c.288.768.432 1.608.432 2.52 0 1.464-.396 2.664-1.188 3.6-.768.912-1.764 1.572-2.988 1.98.672.168 1.32.432 1.944.792.648.336 1.224.78 1.728 1.332.504.528.912 1.176 1.224 1.944.312.768.468 1.668.468 2.7 0 1.056-.192 2.028-.576 2.916a6.332 6.332 0 0 1-1.656 2.34c-.72.648-1.644 1.164-2.772 1.548-1.128.36-2.448.54-3.96.54-.792 0-1.524-.06-2.196-.18a13.572 13.572 0 0 1-3.024-.792 7.902 7.902 0 0 1-.756-.36l.612-2.088c.144.096.384.216.72.36.336.144.732.288 1.188.432.48.12 1.008.228 1.584.324.6.096 1.248.144 1.944.144Z"/></svg>