<svg xmlns="http://www.w3.org/2000/svg" width="16" height="26" fill="none"><path fill="#fff" d="M14.416 7.244c0 .936-.168 1.824-.504 2.664a10.841 10.841 0 0 1-1.368 2.376 18.112 18.112 0 0 1-1.908 2.232c-.72.72-1.452 1.44-2.196 2.16-.624.6-1.236 1.212-1.836 1.836-.576.6-1.104 1.212-1.584 1.836-.456.6-.828 1.2-1.116 1.8a4.117 4.117 0 0 0-.396 1.728v.072H15.28V26H.916c0-.048-.012-.132-.036-.252v-.612c0-1.128.204-2.172.612-3.132.408-.984.924-1.908 1.548-2.772a20.36 20.36 0 0 1 2.124-2.412c.792-.744 1.548-1.464 2.268-2.16.6-.576 1.164-1.128 1.692-1.656a13.156 13.156 0 0 0 1.44-1.692 7.931 7.931 0 0 0 .972-1.836 6.07 6.07 0 0 0 .36-2.124c0-1.68-.456-2.88-1.368-3.6-.888-.744-2.016-1.116-3.384-1.116-.768 0-1.452.096-2.052.288-.6.192-1.128.42-1.584.684-.432.24-.804.492-1.116.756-.312.264-.54.468-.684.612L.484 3.356c.144-.168.396-.408.756-.72.384-.336.852-.66 1.404-.972a10.015 10.015 0 0 1 1.98-.792c.744-.24 1.572-.36 2.484-.36 2.424 0 4.248.6 5.472 1.8 1.224 1.176 1.836 2.82 1.836 4.932Z"/></svg>