<svg xmlns="http://www.w3.org/2000/svg" width="38" height="40" fill="none"><g clip-path="url(#a)"><path fill="#0592B8" d="M30.013 13.098a9.158 9.158 0 0 1-2.63.707 4.557 4.557 0 0 0 2.009-2.518 9.016 9.016 0 0 1-2.899 1.104 4.557 4.557 0 0 0-3.337-1.444 4.566 4.566 0 0 0-4.567 4.57c0 .354.043.707.112 1.047a12.98 12.98 0 0 1-9.417-4.781c-.41.7-.625 1.496-.622 2.306a4.57 4.57 0 0 0 2.036 3.806 4.608 4.608 0 0 1-2.065-.58v.055c0 2.221 1.57 4.061 3.661 4.484a4.838 4.838 0 0 1-1.202.156c-.298 0-.579-.03-.863-.07a4.576 4.576 0 0 0 4.27 3.169 9.154 9.154 0 0 1-5.67 1.952 9.35 9.35 0 0 1-1.104-.056 12.934 12.934 0 0 0 7.015 2.05c8.4 0 12.996-6.96 12.996-13 0-.198 0-.396-.013-.594a9.836 9.836 0 0 0 2.29-2.363Z"/></g><defs><clipPath id="a"><path fill="#fff" d="M6.87 8h24v24h-24z"/></clipPath></defs></svg>