<svg xmlns="http://www.w3.org/2000/svg" width="31" height="31" fill="none"><g clip-path="url(#a)"><path fill="#E76F00" d="M15.904 8.413C22.08 3.618 18.91.5 18.91.5c.472 4.957-5.103 6.127-6.598 9.534-1.02 2.324.699 4.36 3.59 6.924-.256-.568-.65-1.12-1.05-1.679-1.36-1.906-2.778-3.892 1.052-6.866Z"/><path fill="#E76F00" d="M16.89 18.01s1.858-1.5.386-3.166c-4.988-5.652 5.456-8.217 5.456-8.217-6.376 3.072-5.424 4.896-3.822 7.11 1.716 2.376-2.02 4.273-2.02 4.273Z"/><path fill="#5382A1" d="M22.36 22.48c5.724-2.925 3.078-5.735 1.23-5.357-.452.093-.654.174-.654.174s.168-.26.49-.372c3.654-1.263 6.464 3.726-1.18 5.703 0 0 .088-.078.115-.148ZM10.45 18.778c-3.58-.47 1.964-1.765 1.964-1.765s-2.153-.143-4.801 1.116c-3.132 1.49 7.745 2.167 13.376.71.585-.392 1.394-.733 1.394-.733s-2.304.405-4.598.595c-2.808.231-5.822.276-7.334.077ZM11.813 21.571c-1.997-.203-.69-1.155-.69-1.155-5.167 1.687 2.876 3.6 10.097 1.523-.768-.266-1.256-.753-1.256-.753-3.53.668-5.568.647-8.15.385ZM12.683 24.593c-1.995-.226-.83-.892-.83-.892-4.69 1.289 2.854 3.951 8.826 1.434-.978-.374-1.679-.806-1.679-.806-2.664.496-3.9.535-6.317.264Z"/><path fill="#5382A1" d="M25.175 26.13s.862.7-.95 1.24c-3.448 1.027-14.348 1.337-17.376.04-1.089-.465.952-1.111 1.595-1.247.67-.142 1.052-.116 1.052-.116-1.21-.838-7.825 1.647-3.36 2.359 12.177 1.941 22.197-.875 19.039-2.276Z"/><path fill="#5382A1" d="M27.107 27.657c-.2 2.557-8.636 3.095-14.13 2.749-3.585-.226-4.303-.791-4.313-.8 3.43.557 9.213.658 13.903-.21 4.156-.77 4.54-1.739 4.54-1.739Z"/></g><defs><clipPath id="a"><path fill="#fff" d="M.857.5h30v30h-30z"/></clipPath></defs></svg>