<svg xmlns="http://www.w3.org/2000/svg" width="241" height="118" fill="none"><g clip-path="url(#a)"><path fill="#D2D2D2" d="m22.799 57.977 8.326 1.338v9.64h10v6.911h-10v10.311c0 1.747.306 3.14.921 4.181.615 1.04 1.853 1.56 3.716 1.56.894 0 1.815-.084 2.765-.25.95-.168 1.816-.4 2.599-.698l1.172 6.466c-1.005.41-2.122.762-3.352 1.06-1.229.296-2.738.445-4.525.445-2.273 0-4.153-.307-5.644-.92-1.489-.613-2.68-1.468-3.576-2.563-.894-1.096-1.518-2.425-1.871-3.985-.353-1.561-.531-3.288-.531-5.184V57.977ZM66.324 81.44a258.466 258.466 0 0 1-2.375 8.416 339.167 339.167 0 0 1-2.654 8.416h-6.48a105.298 105.298 0 0 1-2.18-5.574 253.85 253.85 0 0 1-2.43-7.05 443.479 443.479 0 0 1-2.57-8.082 383.532 383.532 0 0 1-2.543-8.612h8.772l.978 4.376c.354 1.58.726 3.206 1.117 4.877.392 1.672.801 3.353 1.23 5.045.428 1.69.865 3.315 1.313 4.877.484-1.636.959-3.308 1.425-5.017.464-1.709.912-3.391 1.34-5.044.429-1.654.838-3.251 1.23-4.793.391-1.543.735-2.983 1.034-4.32h6.033c.298 1.337.634 2.777 1.006 4.32.372 1.542.763 3.14 1.173 4.793.41 1.653.839 3.335 1.285 5.044.447 1.709.913 3.381 1.397 5.017.448-1.562.894-3.187 1.341-4.877a180.85 180.85 0 0 0 1.257-5.045c.391-1.671.764-3.298 1.117-4.877.355-1.578.68-3.038.979-4.376h8.66c-.82 2.9-1.667 5.77-2.543 8.612a443.479 443.479 0 0 1-2.57 8.082 197.7 197.7 0 0 1-2.458 7.05c-.801 2.156-1.537 4.013-2.207 5.574h-6.48a1107.7 1107.7 0 0 1-2.74-8.416 166.593 166.593 0 0 1-2.457-8.416ZM100.573 98.272h-8.324V68.954h8.324v29.318Zm.783-38.86c0 1.524-.495 2.722-1.481 3.596-.987.873-2.151 1.31-3.493 1.31-1.34 0-2.504-.437-3.49-1.31-.989-.874-1.482-2.072-1.482-3.595 0-1.524.493-2.722 1.481-3.595.987-.873 2.151-1.31 3.491-1.31 1.341 0 2.506.436 3.493 1.31.986.873 1.481 2.071 1.481 3.595ZM116.832 92.308c1.527 0 2.608-.148 3.241-.445.633-.297.95-.873.95-1.728 0-.668-.411-1.254-1.23-1.756-.819-.501-2.067-1.068-3.743-1.7a38.464 38.464 0 0 1-3.548-1.504c-1.061-.521-1.965-1.144-2.71-1.868a7.586 7.586 0 0 1-1.732-2.591c-.41-1.004-.614-2.212-.614-3.624 0-2.749 1.024-4.922 3.072-6.52 2.049-1.598 4.862-2.397 8.438-2.397 1.787 0 3.5.158 5.14.474 1.638.316 2.943.66 3.911 1.031l-1.453 6.465a30.576 30.576 0 0 0-3.157-.892c-1.136-.26-2.412-.39-3.827-.39-2.607 0-3.911.725-3.911 2.174 0 .334.056.632.168.892.111.26.335.51.67.752.335.241.792.502 1.369.78.577.28 1.313.586 2.207.92 1.826.669 3.333 1.328 4.525 1.98 1.192.65 2.133 1.355 2.823 2.117a6.594 6.594 0 0 1 1.452 2.536c.279.928.419 2.006.419 3.232 0 2.899-1.09 5.09-3.269 6.578-2.179 1.485-5.261 2.229-9.247 2.229-2.607 0-4.776-.223-6.509-.67-1.732-.445-2.934-.817-3.604-1.114l1.397-6.744c1.416.558 2.868.994 4.358 1.31 1.491.315 2.962.473 4.414.473ZM135.288 59.315l8.251-1.338v10.977h10.001v6.912h-10.001v10.311c0 1.747.308 3.14.923 4.181.613 1.04 1.852 1.56 3.714 1.56.894 0 1.817-.084 2.767-.25.95-.168 1.815-.4 2.597-.698l1.174 6.466c-1.006.41-2.124.762-3.353 1.06-1.228.296-2.737.445-4.526.445-2.271 0-4.153-.307-5.642-.92-1.491-.613-2.683-1.468-3.576-2.563-.894-1.096-1.518-2.425-1.872-3.985-.354-1.561-.531-3.288-.531-5.184l.074-26.974ZM168.626 98.272h-8.325V68.954h8.325v29.318Zm.783-38.86c0 1.524-.495 2.722-1.482 3.596-.986.873-2.151 1.31-3.492 1.31-1.34 0-2.504-.437-3.491-1.31-.988-.874-1.481-2.072-1.481-3.595 0-1.524.493-2.722 1.481-3.595.987-.873 2.151-1.31 3.491-1.31 1.341 0 2.506.436 3.492 1.31.987.873 1.482 2.071 1.482 3.595ZM175.051 83.837c0-2.602.4-4.877 1.201-6.829.801-1.95 1.853-3.575 3.158-4.876a13.147 13.147 0 0 1 4.497-2.954 14.12 14.12 0 0 1 5.224-1.003c4.171 0 7.469 1.273 9.89 3.818 2.42 2.544 3.631 6.288 3.631 11.23 0 .483-.019 1.013-.055 1.589a81.692 81.692 0 0 1-.113 1.532H183.6c.185 1.71.986 3.067 2.402 4.07 1.416 1.003 3.315 1.504 5.699 1.504a24.08 24.08 0 0 0 4.498-.418c1.471-.278 2.672-.622 3.604-1.03l1.118 6.744c-.448.222-1.043.445-1.789.668-.745.223-1.573.418-2.486.585-.912.167-1.891.307-2.934.419a29.548 29.548 0 0 1-3.129.167c-2.644 0-4.945-.39-6.9-1.17-1.955-.781-3.576-1.85-4.861-3.206-1.285-1.356-2.235-2.963-2.849-4.821-.614-1.858-.922-3.864-.922-6.02Zm19.556-3.178a8.543 8.543 0 0 0-.364-2.062 5.126 5.126 0 0 0-.95-1.783 5.037 5.037 0 0 0-1.62-1.282c-.651-.334-1.461-.501-2.43-.501-.931 0-1.732.158-2.402.474a4.955 4.955 0 0 0-1.676 1.253 5.59 5.59 0 0 0-1.034 1.812c-.242.688-.42 1.383-.531 2.09h11.007Z"/><path fill="#0495BC" d="M32.968 43.042c1.528 0 2.607-.149 3.24-.445.634-.298.95-.874.95-1.729 0-.668-.409-1.254-1.23-1.755-.819-.502-2.066-1.068-3.742-1.7a38.585 38.585 0 0 1-3.548-1.505c-1.062-.52-1.965-1.143-2.71-1.868a7.555 7.555 0 0 1-1.732-2.59c-.41-1.005-.615-2.212-.615-3.624 0-2.75 1.025-4.923 3.073-6.52 2.049-1.598 4.861-2.397 8.437-2.397 1.788 0 3.502.158 5.14.474 1.64.315 2.943.659 3.911 1.03L42.69 26.88a30.51 30.51 0 0 0-3.158-.893c-1.135-.26-2.411-.389-3.826-.389-2.608 0-3.911.725-3.911 2.174 0 .334.055.631.167.891.112.26.335.51.67.752.336.242.792.503 1.37.78.578.28 1.313.587 2.207.921 1.825.668 3.334 1.328 4.526 1.979 1.19.65 2.132 1.356 2.821 2.117a6.588 6.588 0 0 1 1.453 2.536c.278.929.418 2.007.418 3.233 0 2.899-1.088 5.09-3.268 6.577-2.18 1.486-5.26 2.23-9.246 2.23-2.608 0-4.778-.224-6.51-.67-1.732-.445-2.933-.817-3.604-1.115l1.397-6.743c1.415.557 2.869.993 4.358 1.31 1.49.315 2.961.473 4.414.473ZM70.458 34.57c0-2.564-.577-4.617-1.731-6.159-1.155-1.542-2.868-2.313-5.141-2.313-.745 0-1.434.028-2.068.084-.633.056-1.154.12-1.563.195V41.37c.52.334 1.2.613 2.038.836a9.84 9.84 0 0 0 2.543.334c3.948 0 5.922-2.656 5.922-7.97Zm8.493-.223c0 2.267-.28 4.328-.838 6.187-.559 1.858-1.378 3.455-2.459 4.793a11.082 11.082 0 0 1-4.022 3.122c-1.602.742-3.445 1.114-5.531 1.114-1.156 0-2.235-.11-3.241-.334a15.645 15.645 0 0 1-2.905-.948v11.036H51.63V20.692a32.425 32.425 0 0 1 2.57-.641 44.718 44.718 0 0 1 3.045-.53 60.432 60.432 0 0 1 3.24-.362c1.099-.092 2.15-.14 3.157-.14 2.42 0 4.581.363 6.481 1.088 1.9.724 3.502 1.747 4.805 3.065 1.303 1.32 2.3 2.926 2.989 4.822.69 1.894 1.034 4.012 1.034 6.353ZM96.606 43.209c.82 0 1.602-.018 2.347-.055a16.81 16.81 0 0 0 1.788-.167v-6.298a15.367 15.367 0 0 0-1.508-.223 16.824 16.824 0 0 0-1.844-.113c-.782 0-1.518.047-2.207.14-.689.093-1.295.269-1.816.53-.522.26-.931.612-1.23 1.059-.296.446-.446 1.003-.446 1.672 0 1.3.437 2.202 1.313 2.703.875.501 2.076.752 3.603.752Zm-.67-24.3c2.458 0 4.507.278 6.147.835 1.638.558 2.95 1.357 3.938 2.397.987 1.04 1.686 2.304 2.095 3.79.41 1.486.615 3.14.615 4.96V48.17c-1.192.261-2.85.568-4.972.92-2.124.353-4.694.53-7.711.53-1.9 0-3.622-.167-5.168-.502-1.546-.334-2.877-.882-3.995-1.643a7.537 7.537 0 0 1-2.57-2.983c-.596-1.226-.894-2.73-.894-4.514 0-1.71.345-3.159 1.033-4.348a7.941 7.941 0 0 1 2.766-2.842c1.154-.706 2.477-1.218 3.967-1.534a22.306 22.306 0 0 1 4.637-.472c1.08 0 2.04.046 2.877.138.84.093 1.518.214 2.04.363v-.78c0-1.413-.429-2.546-1.285-3.4-.857-.855-2.347-1.283-4.47-1.283-1.415 0-2.812.103-4.19.307-1.379.205-2.57.492-3.576.864l-1.062-6.688c.485-.15 1.09-.307 1.816-.474a31.787 31.787 0 0 1 2.375-.445c.857-.131 1.76-.242 2.71-.336a29.61 29.61 0 0 1 2.877-.138ZM114.877 34.347c0-2.117.345-4.114 1.033-5.992.689-1.875 1.686-3.51 2.99-4.904 1.303-1.394 2.886-2.5 4.749-3.317 1.863-.817 3.985-1.225 6.369-1.225 1.564 0 2.998.138 4.303.417 1.303.279 2.57.678 3.798 1.199l-1.731 6.632a20.965 20.965 0 0 0-2.571-.78c-.93-.222-1.973-.334-3.129-.334-2.457 0-4.292.762-5.503 2.285-1.211 1.523-1.815 3.53-1.815 6.019 0 2.638.568 4.682 1.703 6.131 1.136 1.45 3.12 2.174 5.95 2.174 1.007 0 2.087-.093 3.242-.279a13.842 13.842 0 0 0 3.184-.891l1.173 6.8c-.968.408-2.179.76-3.631 1.058-1.453.298-3.054.446-4.805.446-2.683 0-4.991-.399-6.929-1.198-1.936-.799-3.529-1.886-4.776-3.26-1.248-1.375-2.16-3.001-2.739-4.877-.577-1.877-.865-3.911-.865-6.104ZM141.416 34.57c0-2.601.4-4.877 1.201-6.828.801-1.95 1.854-3.575 3.157-4.877a13.153 13.153 0 0 1 4.498-2.954 14.116 14.116 0 0 1 5.223-1.002c4.173 0 7.469 1.272 9.89 3.818 2.421 2.544 3.631 6.288 3.631 11.23 0 .483-.018 1.013-.055 1.588a82.41 82.41 0 0 1-.112 1.533h-18.885c.187 1.71.988 3.066 2.403 4.069 1.415 1.003 3.315 1.505 5.699 1.505a24.08 24.08 0 0 0 4.498-.418c1.471-.278 2.672-.623 3.604-1.031l1.117 6.744c-.447.222-1.043.445-1.789.669-.744.223-1.573.417-2.486.585-.912.167-1.889.306-2.932.418a29.548 29.548 0 0 1-3.129.167c-2.645 0-4.945-.39-6.901-1.17-1.955-.78-3.575-1.849-4.86-3.205-1.286-1.356-2.235-2.963-2.85-4.822-.615-1.857-.922-3.864-.922-6.019Zm19.555-3.177a8.541 8.541 0 0 0-.363-2.062 5.145 5.145 0 0 0-.95-1.784 5.049 5.049 0 0 0-1.62-1.281c-.652-.334-1.462-.502-2.43-.502-.932 0-1.733.158-2.403.474a4.955 4.955 0 0 0-1.676 1.253 5.608 5.608 0 0 0-1.034 1.812 11.987 11.987 0 0 0-.531 2.09h11.007Z"/><path fill="#D2D2D2" fill-rule="evenodd" d="M225.454 67.928v50.044H-.001V.004h186.347V3.9H3.906v110.175h217.641V67.928h3.907Z" clip-rule="evenodd"/><path fill="#038E5B" fill-rule="evenodd" d="M215.862 22.343a18.667 18.667 0 0 1 6.269-1.063c2.161 0 4.238.365 6.173 1.03a18.724 18.724 0 0 1-6.259 10.727l-6.183-10.694Z" clip-rule="evenodd"/><path fill="#6B3A89" fill-rule="evenodd" d="M197.582 33.037a18.713 18.713 0 0 1-6.259-10.728 18.966 18.966 0 0 1 6.172-1.03c2.199 0 4.312.366 6.275 1.064l-6.188 10.694Z" clip-rule="evenodd"/><path fill="#E8631F" fill-rule="evenodd" d="M216.008 43.466a18.684 18.684 0 0 1-6.196 10.778 18.691 18.691 0 0 1-6.194-10.778h12.39Z" clip-rule="evenodd"/><path fill="#0495BC" fill-rule="evenodd" d="M206.713 17.261a24.644 24.644 0 0 0-9.218-1.777c-2.194 0-4.321.282-6.345.814 1.213-9.2 9.112-16.308 18.663-16.308 9.552 0 17.451 7.108 18.662 16.308a24.95 24.95 0 0 0-6.344-.814c-3.256 0-6.366.631-9.21 1.777l-3.103-5.364-3.105 5.364Z" clip-rule="evenodd"/><path fill="#FDC407" fill-rule="evenodd" d="M224.986 38.135c4.137-3.238 7.213-7.755 8.618-12.97 4.47 3.438 7.352 8.835 7.352 14.897 0 10.362-8.435 18.765-18.825 18.765-2.548 0-4.98-.498-7.198-1.411a24.5 24.5 0 0 0 6.962-13.95h6.179l-3.088-5.33Z" clip-rule="evenodd"/><path fill="#C3057D" fill-rule="evenodd" d="M197.732 43.466a24.505 24.505 0 0 0 6.961 13.95 18.855 18.855 0 0 1-7.198 1.411c-10.389 0-18.824-8.403-18.824-18.765 0-6.062 2.881-11.459 7.35-14.896 1.405 5.214 4.483 9.731 8.619 12.97l-3.091 5.33h6.183Z" clip-rule="evenodd"/></g><defs><clipPath id="a"><path fill="#fff" d="M0 0h241v118H0z"/></clipPath></defs></svg>