<svg xmlns="http://www.w3.org/2000/svg" width="31" height="31" fill="none"><path fill="#8CC84B" d="M16.242 2.655a2.298 2.298 0 0 0-2.199 0c-3.336 1.84-6.671 3.682-10.008 5.522-.649.342-1.087 1.039-1.08 1.763v11.122c-.004.738.456 1.442 1.122 1.778.958.51 1.89 1.072 2.865 1.548 1.127.553 2.537.676 3.678.098.926-.478 1.337-1.543 1.336-2.521.007-3.67 0-7.341.003-11.012.021-.163-.101-.338-.279-.334-.426-.007-.853-.004-1.28 0-.16-.016-.318.118-.305.28-.006 3.647 0 7.295-.004 10.942.01.505-.331.99-.818 1.16-1.123.394-4.328-1.687-4.328-1.687a.316.316 0 0 1-.181-.31V9.998a.34.34 0 0 1 .21-.342c3.325-1.83 6.648-3.664 9.973-5.496a.36.36 0 0 1 .392.001c3.324 1.83 6.648 3.663 9.973 5.493.136.06.224.196.21.344l-.001 11.007a.316.316 0 0 1-.179.313c-3.293 1.82-6.625 3.581-9.888 5.454-.143.082-.304.175-.464.085-.858-.475-1.706-.968-2.561-1.448-.093-.058-.212-.083-.309-.018-.383.202-.744.366-1.184.54-.62.245-.52.345.038.67 1 .567 2.002 1.13 3.003 1.697.658.411 1.543.44 2.223.06l10.008-5.517c.664-.339 1.127-1.04 1.122-1.778V9.939c.007-.708-.414-1.393-1.044-1.74-3.347-1.85-6.696-3.695-10.044-5.544Z"/><path fill="#8CC84B" d="M21.276 11.006c-1.31-.7-2.867-.738-4.322-.646-1.052.104-2.157.394-2.923 1.147-.786.758-.957 1.98-.584 2.97.268.698.94 1.153 1.637 1.393.896.317 1.838.415 2.78.513.86.089 1.718.178 2.544.433.338.112.73.283.834.65.095.435-.01.94-.362 1.242-1.121.887-4.24.751-5.347.053-.447-.297-.64-.824-.719-1.326-.008-.156-.134-.3-.304-.288-.425-.005-.85-.004-1.276 0-.148-.013-.302.093-.31.244-.088 2.299 2.023 3.3 4.004 3.521 1.131.108 2.287.102 3.402-.141.837-.19 1.677-.542 2.254-1.187.71-.784.85-1.951.532-2.928-.244-.729-.94-1.196-1.653-1.436-.968-.333-2.116-.511-2.993-.595-1.275-.121-2.79-.071-3.151-.91-.144-.438-.021-.982.382-1.252 1.066-.724 3.237-.628 4.342-.087.507.254.8.775.922 1.302.023.155.127.316.306.31.422.008.844.002 1.266.002.145.01.304-.072.332-.22-.017-1.1-.58-2.227-1.593-2.764Z"/></svg>