<svg xmlns="http://www.w3.org/2000/svg" width="82" height="89" fill="none"><g clip-path="url(#a)"><path fill="#356BA5" d="M50.802 49.92c-.64-5.087 2.387-9.236 5.73-12.287 3.343-3.05 7.262-5.674 9.474-9.622 2.213-3.947 1.867-9.87-2.139-11.975a52.594 52.594 0 0 0-10.714-4.198c.951 1.119 1.663 2.436 2.025 3.862 1.006 3.968-.755 8.482-4.182 10.72-7.697 5.023-12.066 15.71-8.448 24.62 4.088-.193 8.254-1.12 8.254-1.12Z"/><path fill="#356BA5" d="M50.802 49.92c-.64-5.087 2.387-9.236 5.73-12.287 3.343-3.05 7.262-5.674 9.474-9.622 2.213-3.947 1.867-9.87-2.139-11.975a52.594 52.594 0 0 0-10.714-4.198c.951 1.119 1.663 2.436 2.025 3.862 1.006 3.968-.755 8.482-4.182 10.72-7.697 5.023-12.066 15.71-8.448 24.62 4.088-.193 8.254-1.12 8.254-1.12Zm25.352-25.15a9.905 9.905 0 0 0 2.662-6.358 1.218 1.218 0 0 0-.842-1.177 1.218 1.218 0 0 0-1.35.518c-1.21 1.991-1.434 4.552-.47 7.017Zm-.52 2.387a12.603 12.603 0 0 0-1.88-6.38c-.523-.845-1.895-.841-2.58-.122-.686.72-.726 1.887-.312 2.79.414.904 1.201 1.582 2.03 2.13.829.548 1.724.998 2.742 1.582Zm.562 4.62a9.773 9.773 0 0 1 2.043-6.773 1.537 1.537 0 0 1 1.709-.47c.59.227.997.862.956 1.493-.168 2.58-2.106 4.95-4.708 5.75Zm.164 1.428a12.41 12.41 0 0 0-3.708-4.69c-.758-.586-1.993-.157-2.403.709-.409.866-.098 1.95.562 2.643.66.694 1.602 1.052 2.542 1.235.94.182 1.904.21 3.007.103Z"/><path fill="#356BA5" d="M81.11 42.45c-.045.04-.302-.176-.732-.607l-.354-.363c-.123-.137-.246-.296-.383-.463-.266-.34-.591-.714-.88-1.177l-.474-.714c-.161-.25-.301-.527-.46-.806l-.238-.429c-.04-.073-.082-.145-.12-.22-.034-.077-.07-.154-.106-.232l-.442-.96a22.87 22.87 0 0 1-1.35-4.5 22.867 22.867 0 0 1-.326-4.688l.074-1.054.019-.254c.008-.084.022-.166.034-.249l.07-.485c.05-.317.083-.625.146-.917l.19-.835c.108-.534.28-1 .41-1.411.069-.205.127-.397.194-.57.075-.168.142-.323.203-.464.25-.555.414-.847.47-.825.057.022.001.356-.146.935l-.127.48c-.042.175-.076.37-.122.576-.081.414-.207.877-.273 1.404l-.13.82c-.044.285-.059.586-.092.894l-.046.471c-.007.08-.018.16-.022.241l-.008.246-.035 1.018a25.944 25.944 0 0 0 .38 4.51c.299 1.58.743 3.048 1.237 4.352l.392.94.094.228c.032.074.071.145.106.217.07.144.14.286.21.425.14.276.26.553.401.804l.411.721c.248.47.529.858.752 1.217.115.177.215.347.317.496l.288.404c.342.49.512.783.467.823Z"/><path fill="#2C5172" d="m78.955 32.842-7.699 4.836 3.897 3.051c1.442-2.594 2.884-5.189 3.802-7.887Z"/><path fill="#356BA5" d="M40.646 56.191c-.57-4.49 2.456-8.64 5.8-11.69 3.342-3.05 7.26-5.674 9.474-9.621 2.212-3.948 1.867-9.87-2.14-11.976-12.447-6.54-28.152-8.277-40.838-2.21-2.579 1.232-3.64 3.868-1.812 4.826 1.828.957 8.793.61 8.793.61s-7.88.535-9.529 3.332c-.863 1.465-.393 3.45 1.624 3.905 2.94.661 7.442.192 11.6.147-1.605.163-7.013.864-8.785 1.581-1.317.534-2.573 1.557-2.794 2.96-.22 1.403 1.327 2.522 2.725 2.776 3.317.602 7.59.555 11.44.166-2.492 2.007-4.003 5.182-3.986 8.382.017 3.2 1.56 6.359 4.074 8.34l14.354-1.528Z"/><path fill="#F3C227" d="M36.378 50.85c-2.514-1.98-4.057-5.14-4.073-8.34-.017-3.2 1.493-6.375 3.986-8.38-3.85.388-8.123.434-11.44-.168-1.398-.254-2.946-1.372-2.725-2.776.22-1.403 1.477-2.426 2.794-2.959 1.771-.717 7.18-1.418 8.785-1.58-4.158.044-8.66.513-11.6-.149-2.018-.454-2.488-2.439-1.624-3.904 1.648-2.797 9.528-3.332 9.528-3.332s-6.965.347-8.793-.61c-1.828-.958-.766-3.594 1.812-4.827 12.686-6.066 28.391-4.329 40.84 2.211 4.005 2.105 4.35 8.028 2.138 11.975-2.213 3.948-6.131 6.572-9.474 9.622s-6.37 7.2-5.73 12.286c6.47 1.237 10.014-3.635 11.846-8.445 1.194-3.134 5.117-5.868 8.627-4.587 4.098 1.496 9.463 7.806 3.964 19.467-3.927 8.328-10.93 15.16-19.352 18.88-8.422 3.718-18.19 4.292-26.99 1.585-6.489-1.997-10.86-9.286-9.562-15.951 1.297-6.665 8.082-11.784 17.043-10.018Z"/><path fill="#2C5172" d="M69.312 40.965c.056-.022.16.08.298.288.138.207.314.518.492.93.088.207.176.44.251.702.075.262.14.553.152.885.013.326-.026.713-.232 1.084a1.69 1.69 0 0 1-.414.485 1.976 1.976 0 0 1-.545.302 2.29 2.29 0 0 1-.283.085 1.806 1.806 0 0 1-.918.01 2.083 2.083 0 0 1-.952-.557 3.441 3.441 0 0 1-.548-.723 4.837 4.837 0 0 1-.325-.68 4.667 4.667 0 0 1-.28-1.028c-.034-.25-.018-.397.04-.415.057-.019.151.092.281.3.13.207.296.512.515.868.11.177.233.367.377.554.142.188.305.374.489.53.184.154.39.274.6.315.106.022.214.027.327.014.105-.016.253-.052.37-.096.245-.09.414-.222.521-.395.109-.174.16-.406.168-.65.017-.491-.095-.987-.184-1.396-.094-.413-.18-.754-.22-.999-.04-.244-.037-.391.02-.413Z"/><path fill="#F3C227" d="M36.625 51.112C15.17 46.84.884 57.998.884 57.998S4.189 71.266 13.85 76.556c1.32-9.994 7.818-20.283 20.018-18.666"/></g><defs><clipPath id="a"><path fill="#fff" d="M.884.089h80.233v88.415H.884z"/></clipPath></defs></svg>