<svg xmlns="http://www.w3.org/2000/svg" width="31" height="31" fill="none"><path fill="#53C1DE" d="M18.226 15.477c0-1.344-1.124-2.435-2.512-2.435-1.387 0-2.511 1.09-2.511 2.435s1.124 2.436 2.511 2.436c1.388 0 2.512-1.09 2.512-2.436Z"/><path fill="#53C1DE" fill-rule="evenodd" d="M23.871 10.957c.53-2.09 1.197-5.965-1.153-7.279-2.34-1.308-5.383 1.199-6.99 2.703-1.603-1.49-4.733-3.985-7.08-2.667-2.34 1.312-1.618 5.123-1.076 7.226-2.181.6-5.92 1.894-5.92 4.537 0 2.636 3.735 4.044 5.903 4.644-.544 2.114-1.229 5.87 1.112 7.18 2.357 1.318 5.477-1.119 7.1-2.64 1.617 1.514 4.632 3.966 6.971 2.653 2.347-1.317 1.736-5.14 1.194-7.255 2.102-.602 5.845-1.979 5.845-4.582 0-2.617-3.76-3.922-5.906-4.52Zm-.266 7.98a26.85 26.85 0 0 0-1.425-3.454 26.834 26.834 0 0 0 1.37-3.404c1.573.442 5.025 1.454 5.025 3.398 0 1.964-3.313 2.984-4.97 3.46Zm-1.469 7.369c-1.745.98-4.338-1.366-5.533-2.48a27.494 27.494 0 0 0 2.357-2.903 28.845 28.845 0 0 0 3.81-.569c.381 1.496 1.12 4.968-.634 5.952Zm-12.868-.014c-1.746-.976-.948-4.328-.548-5.886a29.06 29.06 0 0 0 3.79.532 28.532 28.532 0 0 0 2.415 2.892c-1.015.952-3.903 3.442-5.657 2.462ZM2.853 15.477c0-1.97 3.432-2.974 5.042-3.415a27.43 27.43 0 0 0 1.37 3.444 27.835 27.835 0 0 0-1.387 3.493c-1.535-.426-5.025-1.55-5.025-3.522ZM9.25 4.722c1.753-.984 4.473 1.412 5.636 2.49a28.11 28.11 0 0 0-2.395 2.875c-1.323.12-2.59.31-3.753.566-.437-1.696-1.239-4.948.512-5.93Zm10.57 6.631c.898.11 1.758.256 2.565.435-.242.753-.544 1.54-.9 2.348a38.57 38.57 0 0 0-1.664-2.782Zm-4.091-3.308c.554.582 1.109 1.232 1.655 1.937a36.467 36.467 0 0 0-3.324 0 25.928 25.928 0 0 1 1.669-1.937Zm-5.773 6.09c-.35-.804-.65-1.595-.894-2.36a27.903 27.903 0 0 1 2.55-.424 34.025 34.025 0 0 0-1.656 2.784Zm1.681 5.552c-.92-.1-1.79-.235-2.591-.405.248-.777.554-1.585.911-2.407.514.962 1.075 1.9 1.68 2.812Zm4.125 3.305a26.38 26.38 0 0 1-1.692-1.963c1.114.042 2.23.042 3.343-.006-.547.721-1.1 1.381-1.651 1.969Zm5.735-6.159c.376.831.692 1.635.944 2.4-.815.18-1.696.325-2.623.433.599-.922 1.161-1.866 1.679-2.833Zm-3.206 2.974a38.891 38.891 0 0 1-5.122.01 32.74 32.74 0 0 1-2.575-4.312 32.733 32.733 0 0 1 2.56-4.303 34.938 34.938 0 0 1 5.127.001 36.697 36.697 0 0 1 2.568 4.286 36.692 36.692 0 0 1-2.558 4.318Zm3.828-15.12c1.753.981.973 4.464.59 5.978a29.628 29.628 0 0 0-3.76-.576 27.539 27.539 0 0 0-2.378-2.877c1.178-1.102 3.811-3.496 5.548-2.525Z" clip-rule="evenodd"/></svg>