<svg xmlns="http://www.w3.org/2000/svg" width="30" height="31" fill="none"><g clip-path="url(#a)"><path fill="#70AD51" fill-rule="evenodd" d="M5.124 26.743a1.28 1.28 0 1 0-.082-.071l-.249-.22C1.85 23.715 0 19.81 0 15.48 0 7.22 6.72.5 14.98.5c4.2 0 7.997 1.74 10.72 4.534a13.764 13.764 0 0 0 1.594-2.827c1.909 5.736 3.031 10.556 2.62 14.353-.554 7.757-7.038 13.903-14.934 13.903a14.91 14.91 0 0 1-9.634-3.522l-.223-.198Zm22.107-4.67C30.99 17.07 28.895 8.98 27.15 3.81c-1.554 3.238-5.38 5.713-8.683 6.497-3.097.739-5.837.133-8.703 1.236-6.534 2.512-6.431 10.305-2.831 12.056.002 0 .215.116.212.113 0-.002 5.292-1.052 8.217-2.132 4.275-1.58 8.968-5.47 10.512-9.991-.822 4.701-4.858 9.225-8.913 11.302-2.158 1.108-3.836 1.355-7.387 2.584-.435.148-.777.294-.777.294.9-.15 1.798-.198 1.798-.198 5.056-.24 12.944 1.42 16.636-3.497l-.001-.001Z" clip-rule="evenodd"/></g><defs><clipPath id="a"><path fill="#fff" d="M0 .5h30v30H0z"/></clipPath></defs></svg>