<svg xmlns="http://www.w3.org/2000/svg" width="31" height="31" fill="none"><g clip-path="url(#a)"><path fill="#007ACC" d="M.571 15.5v15h30V.5h-30v15Z"/><path fill="#fff" d="m7.206 15.6-.01 1.228H11.101V27.923H13.863V16.828h3.904v-1.205c0-.666-.014-1.223-.033-1.238-.014-.019-2.39-.028-5.271-.024l-5.243.015-.014 1.224ZM24.778 14.34c.762.191 1.343.53 1.877 1.082.276.295.685.833.719.962.01.038-1.296.914-2.086 1.404-.029.02-.143-.104-.271-.295-.386-.562-.791-.804-1.41-.847-.91-.062-1.495.414-1.49 1.21 0 .232.033.37.128.561.2.414.572.662 1.738 1.167 2.148.924 3.067 1.533 3.638 2.4.638.966.781 2.51.348 3.657-.476 1.248-1.657 2.095-3.32 2.376-.514.09-1.733.076-2.285-.024-1.205-.214-2.348-.81-3.052-1.59-.277-.305-.815-1.1-.781-1.157.014-.02.138-.096.276-.177.133-.076.638-.366 1.114-.642l.862-.5.181.266c.253.386.805.915 1.138 1.09.957.505 2.272.434 2.92-.147.275-.252.39-.514.39-.9 0-.348-.043-.5-.224-.762-.233-.333-.71-.614-2.062-1.2-1.548-.666-2.214-1.08-2.824-1.738a3.956 3.956 0 0 1-.824-1.5c-.114-.424-.143-1.486-.052-1.914.32-1.495 1.448-2.538 3.076-2.848.529-.1 1.757-.062 2.276.067Z"/></g><defs><clipPath id="a"><path fill="#fff" d="M.571.5h30v30h-30z"/></clipPath></defs></svg>